STARTFONT 2.1
COMMENT $Xorg: $
COMMENT ISO10646-1 extension by Markus Kuhn <mkuhn@acm.org>, 2001-03-20
COMMENT  (c) Copyright Bigelow & Holmes 1986, 1985. Lucida is a registered
COMMENT  trademark of Bigelow & Holmes. See LEGAL NOTICE file for terms 
COMMENT  of the license. 
COMMENT GRID 0018 0018 0200 0200
FONT -B&H-Lucida-Medium-I-Normal-Sans-18-180-75-75-P-105-ISO10646-1
SIZE 18 72 72
FONTBOUNDINGBOX 24 26 -3 -7
STARTPROPERTIES 22
COMMENT Begin LogicalFontDescription
FONTNAME_REGISTRY ""
FOUNDRY "B&H"
FAMILY_NAME "Lucida"
WEIGHT_NAME "Medium"
SLANT "I"
SETWIDTH_NAME "Normal"
ADD_STYLE_NAME "Sans"
PIXEL_SIZE 18
POINT_SIZE 180
RESOLUTION_X 75
RESOLUTION_Y 75
SPACING "P"
AVERAGE_WIDTH 105
CHARSET_REGISTRY "ISO10646"
CHARSET_ENCODING "1"
COMMENT END LogicalFontDescription
FONT_ASCENT 16
FONT_DESCENT 3
DEFAULT_CHAR 0
COPYRIGHT "Copyright Bigelow & Holmes 1986, 1985."
FACE_NAME "Lucida Sans Italic"
X_HEIGHT 10
CAP_HEIGHT 13
ENDPROPERTIES
CHARS 723
STARTCHAR char0
ENCODING 0
SWIDTH 735 0
DWIDTH 14 0
BBX 11 13 2 0
BITMAP
AAA0
0000
8020
0000
8020
0000
8020
0000
8020
0000
8020
0000
AAA0
ENDCHAR
STARTCHAR space
ENCODING 32
SWIDTH 316 0
DWIDTH 5 0
BBX 1 1 0 0
BITMAP
00
ENDCHAR
STARTCHAR exclam
ENCODING 33
SWIDTH 193 0
DWIDTH 4 0
BBX 4 13 1 0
BITMAP
30
30
30
30
60
60
60
40
40
00
00
C0
C0
ENDCHAR
STARTCHAR quotedbl
ENCODING 34
SWIDTH 361 0
DWIDTH 7 0
BBX 5 4 2 10
BITMAP
D8
D8
90
90
ENDCHAR
STARTCHAR numbersign
ENCODING 35
SWIDTH 633 0
DWIDTH 12 0
BBX 11 13 1 0
BITMAP
0660
0660
0CC0
7FE0
1980
1980
3300
3300
FFC0
6600
6600
CC00
CC00
ENDCHAR
STARTCHAR dollar
ENCODING 36
SWIDTH 633 0
DWIDTH 12 0
BBX 10 15 1 -1
BITMAP
0100
0F80
1140
3100
3200
3A00
1E00
0F00
0B80
0980
0980
1180
D300
7E00
1000
ENDCHAR
STARTCHAR percent
ENCODING 37
SWIDTH 741 0
DWIDTH 14 0
BBX 13 13 1 0
BITMAP
3818
4C30
CC60
CCC0
CD80
C900
7270
0498
0D98
1998
3198
6190
C0E0
ENDCHAR
STARTCHAR ampersand
ENCODING 38
SWIDTH 701 0
DWIDTH 13 0
BBX 11 13 1 0
BITMAP
0780
18C0
18C0
1980
0E00
1C00
6660
4660
C340
C380
C180
E2C0
7CC0
ENDCHAR
STARTCHAR quotesingle
ENCODING 39
SWIDTH 217 0
DWIDTH 4 0
BBX 2 4 2 10
BITMAP
C0
C0
80
80
ENDCHAR
STARTCHAR parenleft
ENCODING 40
SWIDTH 325 0
DWIDTH 6 0
BBX 5 16 2 -2
BITMAP
08
10
30
20
60
60
C0
C0
C0
C0
C0
C0
C0
C0
40
20
ENDCHAR
STARTCHAR parenright
ENCODING 41
SWIDTH 325 0
DWIDTH 6 0
BBX 5 16 0 -2
BITMAP
20
10
18
18
18
18
18
18
18
18
30
30
20
60
40
80
ENDCHAR
STARTCHAR asterisk
ENCODING 42
SWIDTH 470 0
DWIDTH 9 0
BBX 6 7 2 6
BITMAP
10
10
94
CC
30
50
D8
ENDCHAR
STARTCHAR plus
ENCODING 43
SWIDTH 633 0
DWIDTH 12 0
BBX 9 9 2 1
BITMAP
0400
0400
0800
0800
FF80
0800
0800
1000
1000
ENDCHAR
STARTCHAR comma
ENCODING 44
SWIDTH 316 0
DWIDTH 4 0
BBX 3 4 0 -2
BITMAP
60
60
40
80
ENDCHAR
STARTCHAR hyphen
ENCODING 45
SWIDTH 313 0
DWIDTH 6 0
BBX 5 1 1 5
BITMAP
F8
ENDCHAR
STARTCHAR period
ENCODING 46
SWIDTH 316 0
DWIDTH 4 0
BBX 2 2 1 0
BITMAP
C0
C0
ENDCHAR
STARTCHAR slash
ENCODING 47
SWIDTH 482 0
DWIDTH 9 0
BBX 11 16 -1 -2
BITMAP
0060
00C0
00C0
0180
0380
0300
0600
0600
0C00
0C00
1800
3800
3000
6000
6000
C000
ENDCHAR
STARTCHAR zero
ENCODING 48
SWIDTH 633 0
DWIDTH 12 0
BBX 10 13 2 0
BITMAP
0700
1980
30C0
60C0
60C0
C0C0
C0C0
C0C0
C180
C180
C300
6600
3800
ENDCHAR
STARTCHAR one
ENCODING 49
SWIDTH 633 0
DWIDTH 12 0
BBX 4 13 5 0
BITMAP
30
F0
30
30
30
60
60
60
60
C0
C0
C0
C0
ENDCHAR
STARTCHAR two
ENCODING 50
SWIDTH 633 0
DWIDTH 12 0
BBX 10 13 2 0
BITMAP
1F80
31C0
00C0
00C0
00C0
0180
0300
0E00
1800
3000
6000
FF80
FF80
ENDCHAR
STARTCHAR three
ENCODING 51
SWIDTH 633 0
DWIDTH 12 0
BBX 10 13 2 0
BITMAP
1F80
31C0
00C0
00C0
0180
0300
1E00
0300
0180
0180
0180
C300
7E00
ENDCHAR
STARTCHAR four
ENCODING 52
SWIDTH 633 0
DWIDTH 12 0
BBX 9 13 2 0
BITMAP
0180
0380
0580
0980
1180
2300
4300
FF80
FF80
0600
0600
0600
0600
ENDCHAR
STARTCHAR five
ENCODING 53
SWIDTH 633 0
DWIDTH 12 0
BBX 10 13 2 0
BITMAP
1FC0
1FC0
1000
2000
2000
3C00
0600
0300
0300
0300
0300
C600
7C00
ENDCHAR
STARTCHAR six
ENCODING 54
SWIDTH 633 0
DWIDTH 12 0
BBX 10 13 2 0
BITMAP
0780
18C0
3000
6000
6000
CE00
D300
E180
C180
C180
C300
6300
3C00
ENDCHAR
STARTCHAR seven
ENCODING 55
SWIDTH 633 0
DWIDTH 12 0
BBX 10 13 3 0
BITMAP
7FC0
7FC0
0180
0300
0600
0C00
1800
3000
6000
6000
C000
C000
C000
ENDCHAR
STARTCHAR eight
ENCODING 56
SWIDTH 633 0
DWIDTH 12 0
BBX 10 13 2 0
BITMAP
0780
19C0
30C0
30C0
3980
1E00
0F00
3300
6180
C180
C180
E300
7C00
ENDCHAR
STARTCHAR nine
ENCODING 57
SWIDTH 633 0
DWIDTH 12 0
BBX 9 13 3 0
BITMAP
1E00
6300
6180
C180
C180
C380
6580
3980
0300
0300
0600
CC00
7000
ENDCHAR
STARTCHAR colon
ENCODING 58
SWIDTH 316 0
DWIDTH 4 0
BBX 4 10 0 0
BITMAP
30
30
00
00
00
00
00
00
C0
C0
ENDCHAR
STARTCHAR semicolon
ENCODING 59
SWIDTH 316 0
DWIDTH 4 0
BBX 5 12 -1 -2
BITMAP
18
18
00
00
00
00
00
00
60
60
40
80
ENDCHAR
STARTCHAR less
ENCODING 60
SWIDTH 633 0
DWIDTH 12 0
BBX 9 9 2 1
BITMAP
0080
0300
0C00
3000
C000
6000
3000
0C00
0200
ENDCHAR
STARTCHAR equal
ENCODING 61
SWIDTH 633 0
DWIDTH 12 0
BBX 10 5 1 3
BITMAP
7FC0
0000
0000
0000
FF80
ENDCHAR
STARTCHAR greater
ENCODING 62
SWIDTH 633 0
DWIDTH 12 0
BBX 9 9 2 1
BITMAP
2000
1800
0600
0300
0180
0600
1800
6000
8000
ENDCHAR
STARTCHAR question
ENCODING 63
SWIDTH 464 0
DWIDTH 9 0
BBX 7 13 2 0
BITMAP
7C
CE
06
06
0C
18
30
60
40
00
00
C0
C0
ENDCHAR
STARTCHAR at
ENCODING 64
SWIDTH 858 0
DWIDTH 16 0
BBX 14 13 2 0
BITMAP
07E0
1C38
3008
63EC
4C64
CC64
98C4
99C4
DEC8
4CF0
6000
3800
0F80
ENDCHAR
STARTCHAR A
ENCODING 65
SWIDTH 687 0
DWIDTH 12 0
BBX 10 13 1 0
BITMAP
0300
0300
0500
0D80
0980
1980
1180
3180
3FC0
60C0
60C0
C0C0
C0C0
ENDCHAR
STARTCHAR B
ENCODING 66
SWIDTH 593 0
DWIDTH 11 0
BBX 10 13 1 0
BITMAP
3F80
31C0
30C0
30C0
6180
6300
7E00
6300
6180
C180
C180
C300
FC00
ENDCHAR
STARTCHAR C
ENCODING 67
SWIDTH 679 0
DWIDTH 12 0
BBX 12 13 1 0
BITMAP
07E0
1830
3000
6000
6000
C000
C000
C000
C000
C000
6000
7040
1F80
ENDCHAR
STARTCHAR D
ENCODING 68
SWIDTH 743 0
DWIDTH 14 0
BBX 12 13 2 0
BITMAP
3F80
30E0
3060
3030
6030
6030
6030
6030
6060
C060
C0C0
C180
FE00
ENDCHAR
STARTCHAR E
ENCODING 69
SWIDTH 547 0
DWIDTH 10 0
BBX 9 13 2 0
BITMAP
3F80
3000
3000
3000
6000
6000
7E00
6000
6000
C000
C000
C000
FE00
ENDCHAR
STARTCHAR F
ENCODING 70
SWIDTH 536 0
DWIDTH 10 0
BBX 9 13 2 0
BITMAP
3F80
3000
3000
3000
6000
6000
7E00
6000
6000
C000
C000
C000
C000
ENDCHAR
STARTCHAR G
ENCODING 71
SWIDTH 702 0
DWIDTH 13 0
BBX 12 13 1 0
BITMAP
07E0
1830
3000
6000
6000
C000
C000
C060
C060
C060
60C0
70C0
1FC0
ENDCHAR
STARTCHAR H
ENCODING 72
SWIDTH 735 0
DWIDTH 14 0
BBX 12 13 2 0
BITMAP
3030
3030
3030
3030
6060
6060
7FE0
6060
6060
C0C0
C0C0
C0C0
C0C0
ENDCHAR
STARTCHAR I
ENCODING 73
SWIDTH 289 0
DWIDTH 6 0
BBX 4 13 1 0
BITMAP
30
30
30
30
60
60
60
60
60
C0
C0
C0
C0
ENDCHAR
STARTCHAR J
ENCODING 74
SWIDTH 408 0
DWIDTH 8 0
BBX 8 15 -1 -2
BITMAP
03
03
03
03
06
06
06
06
06
0C
0C
0C
08
18
F0
ENDCHAR
STARTCHAR K
ENCODING 75
SWIDTH 635 0
DWIDTH 12 0
BBX 10 13 2 0
BITMAP
30C0
30C0
3180
3300
6600
6C00
7800
6C00
6600
C600
C300
C180
C180
ENDCHAR
STARTCHAR L
ENCODING 76
SWIDTH 545 0
DWIDTH 10 0
BBX 8 13 2 0
BITMAP
30
30
30
30
60
60
60
60
60
C0
C0
C0
FF
ENDCHAR
STARTCHAR M
ENCODING 77
SWIDTH 828 0
DWIDTH 16 0
BBX 14 13 2 0
BITMAP
381C
381C
282C
2C2C
2C4C
4C98
4C98
4D18
4718
8630
8630
8030
8030
ENDCHAR
STARTCHAR N
ENCODING 78
SWIDTH 741 0
DWIDTH 14 0
BBX 11 13 2 0
BITMAP
3820
3820
2C20
2C20
2C60
6640
4640
4340
4340
C380
8180
8180
8180
ENDCHAR
STARTCHAR O
ENCODING 79
SWIDTH 777 0
DWIDTH 14 0
BBX 13 13 1 0
BITMAP
07C0
1870
3030
6018
6018
C018
C018
C018
C030
C030
6060
70C0
1F00
ENDCHAR
STARTCHAR P
ENCODING 80
SWIDTH 575 0
DWIDTH 11 0
BBX 10 13 1 0
BITMAP
3F80
31C0
30C0
30C0
60C0
6180
6300
7C00
6000
C000
C000
C000
C000
ENDCHAR
STARTCHAR Q
ENCODING 81
SWIDTH 777 0
DWIDTH 14 0
BBX 13 16 1 -3
BITMAP
07C0
1870
3030
6018
6018
C018
C018
C018
C030
C030
6060
70C0
1F00
0180
00E0
0038
ENDCHAR
STARTCHAR R
ENCODING 82
SWIDTH 632 0
DWIDTH 12 0
BBX 10 13 2 0
BITMAP
3F80
31C0
30C0
30C0
6180
6300
7C00
6600
6600
C300
C300
C180
C1C0
ENDCHAR
STARTCHAR S
ENCODING 83
SWIDTH 553 0
DWIDTH 10 0
BBX 9 13 1 0
BITMAP
1F00
3980
3000
3000
1800
1C00
0E00
0600
0300
0300
0300
C600
7C00
ENDCHAR
STARTCHAR T
ENCODING 84
SWIDTH 623 0
DWIDTH 12 0
BBX 12 13 1 0
BITMAP
FFF0
0600
0600
0600
0C00
0C00
0C00
0C00
0C00
1800
1800
1800
1800
ENDCHAR
STARTCHAR U
ENCODING 85
SWIDTH 693 0
DWIDTH 13 0
BBX 12 13 1 0
BITMAP
3030
3030
3030
3030
6020
6060
6060
6060
C040
C0C0
C080
6180
3E00
ENDCHAR
STARTCHAR V
ENCODING 86
SWIDTH 687 0
DWIDTH 12 0
BBX 10 13 3 0
BITMAP
C0C0
C0C0
C180
C180
C300
C300
C600
C600
CC00
4800
7800
7000
6000
ENDCHAR
STARTCHAR W
ENCODING 87
SWIDTH 886 0
DWIDTH 16 0
BBX 15 13 2 0
BITMAP
C186
C186
C38C
C38C
C598
CD98
C9B0
D1A0
F1E0
E1C0
C180
C180
8100
ENDCHAR
STARTCHAR X
ENCODING 88
SWIDTH 620 0
DWIDTH 12 0
BBX 11 13 1 0
BITMAP
3060
3060
18C0
1980
0D00
0E00
0E00
1E00
3300
6300
6180
C180
C180
ENDCHAR
STARTCHAR Y
ENCODING 89
SWIDTH 608 0
DWIDTH 11 0
BBX 11 13 2 0
BITMAP
C060
C060
60C0
6180
3300
3600
1C00
1800
1800
3000
3000
3000
3000
ENDCHAR
STARTCHAR Z
ENCODING 90
SWIDTH 578 0
DWIDTH 11 0
BBX 11 13 1 0
BITMAP
3FE0
0060
00E0
01C0
0380
0700
0E00
1C00
3800
7000
E000
C000
FF80
ENDCHAR
STARTCHAR bracketleft
ENCODING 91
SWIDTH 325 0
DWIDTH 6 0
BBX 6 16 1 -2
BITMAP
1C
18
18
18
30
30
30
30
60
60
60
60
C0
C0
C0
E0
ENDCHAR
STARTCHAR backslash
ENCODING 92
SWIDTH 482 0
DWIDTH 9 0
BBX 7 16 1 -2
BITMAP
C0
C0
60
60
60
30
30
30
18
18
18
0C
0C
0C
06
06
ENDCHAR
STARTCHAR bracketright
ENCODING 93
SWIDTH 325 0
DWIDTH 6 0
BBX 6 16 0 -2
BITMAP
1C
0C
0C
0C
18
18
18
18
30
30
30
30
60
60
60
E0
ENDCHAR
STARTCHAR asciicircum
ENCODING 94
SWIDTH 633 0
DWIDTH 12 0
BBX 8 10 2 2
BITMAP
06
0E
1A
12
32
62
63
C3
C3
C3
ENDCHAR
STARTCHAR underscore
ENCODING 95
SWIDTH 500 0
DWIDTH 12 0
BBX 10 1 1 -1
BITMAP
FFC0
ENDCHAR
STARTCHAR grave
ENCODING 96
SWIDTH 572 0
DWIDTH 11 0
BBX 4 2 5 11
BITMAP
E0
30
ENDCHAR
STARTCHAR a
ENCODING 97
SWIDTH 608 0
DWIDTH 11 0
BBX 10 10 1 0
BITMAP
0FC0
31C0
60C0
6180
C180
C380
C580
CB00
FB00
7300
ENDCHAR
STARTCHAR b
ENCODING 98
SWIDTH 608 0
DWIDTH 11 0
BBX 10 14 1 0
BITMAP
1800
1800
1800
1800
3380
37C0
34C0
68C0
70C0
60C0
6180
C180
E300
FC00
ENDCHAR
STARTCHAR c
ENCODING 99
SWIDTH 503 0
DWIDTH 9 0
BBX 8 10 1 0
BITMAP
0E
33
60
60
C0
C0
C0
C0
E4
78
ENDCHAR
STARTCHAR d
ENCODING 100
SWIDTH 608 0
DWIDTH 11 0
BBX 11 14 1 0
BITMAP
0060
0060
0060
0060
0FC0
31C0
60C0
6180
C180
C380
C580
CB00
FB00
7300
ENDCHAR
STARTCHAR e
ENCODING 101
SWIDTH 529 0
DWIDTH 10 0
BBX 8 10 1 0
BITMAP
0E
33
63
63
C6
F8
C0
C0
E2
7C
ENDCHAR
STARTCHAR f
ENCODING 102
SWIDTH 383 0
DWIDTH 7 0
BBX 9 17 0 -3
BITMAP
0380
0400
0C00
0C00
3F00
1800
1800
3000
3000
3000
3000
6000
6000
6000
C000
C000
C000
ENDCHAR
STARTCHAR g
ENCODING 103
SWIDTH 608 0
DWIDTH 11 0
BBX 11 13 0 -3
BITMAP
07E0
18E0
3060
30C0
60C0
61C0
62C0
6580
7D80
3980
0100
C300
7C00
ENDCHAR
STARTCHAR h
ENCODING 104
SWIDTH 620 0
DWIDTH 12 0
BBX 10 14 1 0
BITMAP
1800
1800
1800
1800
3380
37C0
34C0
68C0
7180
6180
6180
C300
C300
C300
ENDCHAR
STARTCHAR i
ENCODING 105
SWIDTH 289 0
DWIDTH 6 0
BBX 6 14 1 0
BITMAP
0C
18
00
00
30
30
30
60
60
60
60
C0
C0
C0
ENDCHAR
STARTCHAR j
ENCODING 106
SWIDTH 325 0
DWIDTH 6 0
BBX 10 17 -3 -3
BITMAP
00C0
0180
0000
0000
0300
0300
0300
0600
0600
0600
0600
0C00
0C00
0C00
0C00
1800
F000
ENDCHAR
STARTCHAR k
ENCODING 107
SWIDTH 572 0
DWIDTH 10 0
BBX 9 14 1 0
BITMAP
1800
1800
1800
1800
3180
3180
3300
6400
7800
7800
6C00
CE00
C700
C380
ENDCHAR
STARTCHAR l
ENCODING 108
SWIDTH 289 0
DWIDTH 6 0
BBX 5 14 1 0
BITMAP
18
18
18
18
30
30
30
60
60
60
60
C0
C0
C0
ENDCHAR
STARTCHAR m
ENCODING 109
SWIDTH 934 0
DWIDTH 18 0
BBX 16 10 1 0
BITMAP
338E
37DF
34D3
68E3
71C6
6186
6186
C30C
C30C
C30C
ENDCHAR
STARTCHAR n
ENCODING 110
SWIDTH 620 0
DWIDTH 12 0
BBX 10 10 1 0
BITMAP
3380
37C0
34C0
68C0
7180
6180
6180
C300
C300
C300
ENDCHAR
STARTCHAR o
ENCODING 111
SWIDTH 566 0
DWIDTH 11 0
BBX 9 10 1 0
BITMAP
0F00
3380
6180
6180
C180
C180
C300
C300
E600
7800
ENDCHAR
STARTCHAR p
ENCODING 112
SWIDTH 608 0
DWIDTH 11 0
BBX 11 13 0 -3
BITMAP
19C0
1BE0
1A60
3460
3860
3060
30C0
60C0
7180
7E00
C000
C000
C000
ENDCHAR
STARTCHAR q
ENCODING 113
SWIDTH 608 0
DWIDTH 11 0
BBX 10 13 1 -3
BITMAP
0FC0
31C0
60C0
6180
C180
C380
C580
CB00
FB00
7300
0600
0600
0600
ENDCHAR
STARTCHAR r
ENCODING 114
SWIDTH 478 0
DWIDTH 9 0
BBX 8 10 1 0
BITMAP
33
37
34
68
70
60
60
C0
C0
C0
ENDCHAR
STARTCHAR s
ENCODING 115
SWIDTH 489 0
DWIDTH 9 0
BBX 8 10 1 0
BITMAP
1E
23
60
70
38
1C
0E
06
C4
78
ENDCHAR
STARTCHAR t
ENCODING 116
SWIDTH 383 0
DWIDTH 7 0
BBX 6 12 1 0
BITMAP
10
30
7C
30
60
60
60
60
C0
C0
C0
70
ENDCHAR
STARTCHAR u
ENCODING 117
SWIDTH 620 0
DWIDTH 11 0
BBX 10 10 1 0
BITMAP
30C0
30C0
30C0
6180
6180
6380
C580
CB00
FB00
7300
ENDCHAR
STARTCHAR v
ENCODING 118
SWIDTH 545 0
DWIDTH 10 0
BBX 8 10 2 0
BITMAP
C3
C3
C3
C2
C6
C4
C8
D0
E0
C0
ENDCHAR
STARTCHAR w
ENCODING 119
SWIDTH 795 0
DWIDTH 15 0
BBX 13 10 2 0
BITMAP
C018
C618
C630
CE30
CE60
D640
D6C0
E680
E700
C600
ENDCHAR
STARTCHAR x
ENCODING 120
SWIDTH 541 0
DWIDTH 10 0
BBX 9 10 1 0
BITMAP
3180
3180
1900
1A00
0C00
1800
2C00
4C00
C600
C600
ENDCHAR
STARTCHAR y
ENCODING 121
SWIDTH 548 0
DWIDTH 10 0
BBX 10 13 0 -3
BITMAP
30C0
30C0
30C0
3080
3180
3100
3200
3400
3800
3000
6000
C000
C000
ENDCHAR
STARTCHAR z
ENCODING 122
SWIDTH 536 0
DWIDTH 10 0
BBX 9 10 1 0
BITMAP
7F80
0380
0700
0E00
1C00
1800
3800
7000
E000
FF00
ENDCHAR
STARTCHAR braceleft
ENCODING 123
SWIDTH 325 0
DWIDTH 6 0
BBX 7 16 1 -2
BITMAP
06
08
18
18
18
18
10
20
C0
20
60
60
C0
C0
C0
60
ENDCHAR
STARTCHAR bar
ENCODING 124
SWIDTH 233 0
DWIDTH 5 0
BBX 4 16 1 -2
BITMAP
30
30
30
30
30
60
60
60
60
60
60
C0
C0
C0
C0
C0
ENDCHAR
STARTCHAR braceright
ENCODING 125
SWIDTH 325 0
DWIDTH 6 0
BBX 7 16 -1 -2
BITMAP
0C
06
06
06
0C
0C
08
06
08
10
30
30
30
30
20
C0
ENDCHAR
STARTCHAR asciitilde
ENCODING 126
SWIDTH 633 0
DWIDTH 12 0
BBX 10 3 2 4
BITMAP
7840
CCC0
8780
ENDCHAR
STARTCHAR space
ENCODING 160
SWIDTH 316 0
DWIDTH 5 0
BBX 1 1 0 0
BITMAP
00
ENDCHAR
STARTCHAR exclamdown
ENCODING 161
SWIDTH 193 0
DWIDTH 5 0
BBX 4 13 1 -3
BITMAP
30
30
00
20
20
60
60
60
60
C0
C0
C0
C0
ENDCHAR
STARTCHAR cent
ENCODING 162
SWIDTH 633 0
DWIDTH 12 0
BBX 9 14 2 -1
BITMAP
0200
0200
0F00
3580
6400
6400
C400
C800
C800
C800
E900
7E00
1000
1000
ENDCHAR
STARTCHAR sterling
ENCODING 163
SWIDTH 633 0
DWIDTH 12 0
BBX 11 13 1 0
BITMAP
01C0
0660
0600
0C00
0C00
0C00
7F00
1800
1800
1000
2000
FF00
FF00
ENDCHAR
STARTCHAR currency
ENCODING 164
SWIDTH 633 0
DWIDTH 11 0
BBX 13 11 0 1
BITMAP
4008
2390
1CE0
1860
1860
3060
30C0
30C0
39C0
4E20
8010
ENDCHAR
STARTCHAR yen
ENCODING 165
SWIDTH 633 0
DWIDTH 12 0
BBX 10 13 2 0
BITMAP
60C0
60C0
6180
3100
3200
3400
1800
7F00
1800
FE00
3000
3000
3000
ENDCHAR
STARTCHAR brokenbar
ENCODING 166
SWIDTH 233 0
DWIDTH 5 0
BBX 4 16 1 -2
BITMAP
30
30
30
30
30
30
00
00
00
00
C0
C0
C0
C0
C0
C0
ENDCHAR
STARTCHAR section
ENCODING 167
SWIDTH 633 0
DWIDTH 12 0
BBX 10 15 1 -2
BITMAP
0F80
10C0
3000
3800
1E00
2700
6380
7180
3900
1E00
0700
0300
0300
C600
7C00
ENDCHAR
STARTCHAR dieresis
ENCODING 168
SWIDTH 566 0
DWIDTH 11 0
BBX 4 2 5 11
BITMAP
90
90
ENDCHAR
STARTCHAR copyright
ENCODING 169
SWIDTH 858 0
DWIDTH 16 0
BBX 13 13 2 0
BITMAP
0F80
3060
4010
4390
8E48
8C08
9808
9808
9888
4F10
4010
3060
0F80
ENDCHAR
STARTCHAR ordfeminine
ENCODING 170
SWIDTH 392 0
DWIDTH 8 0
BBX 7 7 1 6
BITMAP
1E
66
66
CE
DC
EC
CC
ENDCHAR
STARTCHAR guillemotleft
ENCODING 171
SWIDTH 527 0
DWIDTH 10 0
BBX 9 8 0 1
BITMAP
0880
1100
2200
4400
CC00
6600
3300
1100
ENDCHAR
STARTCHAR logicalnot
ENCODING 172
SWIDTH 633 0
DWIDTH 12 0
BBX 9 5 2 1
BITMAP
FF80
0080
0080
0080
0080
ENDCHAR
STARTCHAR hyphen
ENCODING 173
SWIDTH 313 0
DWIDTH 6 0
BBX 5 1 1 5
BITMAP
F8
ENDCHAR
STARTCHAR registered
ENCODING 174
SWIDTH 633 0
DWIDTH 12 0
BBX 8 8 3 5
BITMAP
3C
42
BD
A5
B9
A5
42
3C
ENDCHAR
STARTCHAR macron
ENCODING 175
SWIDTH 566 0
DWIDTH 11 0
BBX 4 1 5 11
BITMAP
F0
ENDCHAR
STARTCHAR degree
ENCODING 176
SWIDTH 269 0
DWIDTH 5 0
BBX 4 4 1 9
BITMAP
60
90
90
60
ENDCHAR
STARTCHAR plusminus
ENCODING 177
SWIDTH 633 0
DWIDTH 12 0
BBX 9 10 2 1
BITMAP
0400
0400
0400
0400
7F80
0800
0800
0800
0000
FF00
ENDCHAR
STARTCHAR twosuperior
ENCODING 178
SWIDTH 392 0
DWIDTH 7 0
BBX 7 7 1 6
BITMAP
3C
66
06
0C
30
60
FC
ENDCHAR
STARTCHAR threesuperior
ENCODING 179
SWIDTH 392 0
DWIDTH 7 0
BBX 7 7 1 6
BITMAP
3C
66
06
38
0C
CC
78
ENDCHAR
STARTCHAR acute
ENCODING 180
SWIDTH 566 0
DWIDTH 11 0
BBX 4 2 5 11
BITMAP
70
C0
ENDCHAR
STARTCHAR mu
ENCODING 181
SWIDTH 627 0
DWIDTH 11 0
BBX 11 13 0 -3
BITMAP
1860
1860
1860
30C0
30C0
31C0
62C0
6580
7D80
7980
C000
C000
C000
ENDCHAR
STARTCHAR paragraph
ENCODING 182
SWIDTH 633 0
DWIDTH 12 0
BBX 8 15 2 -2
BITMAP
7F
F9
F9
F9
F9
7B
12
12
12
12
36
24
24
24
24
ENDCHAR
STARTCHAR periodcentered
ENCODING 183
SWIDTH 316 0
DWIDTH 12 0
BBX 3 3 5 4
BITMAP
E0
E0
E0
ENDCHAR
STARTCHAR cedilla
ENCODING 184
SWIDTH 566 0
DWIDTH 11 0
BBX 4 3 2 -3
BITMAP
60
30
E0
ENDCHAR
STARTCHAR onesuperior
ENCODING 185
SWIDTH 392 0
DWIDTH 7 0
BBX 4 7 2 6
BITMAP
30
F0
30
30
60
60
60
ENDCHAR
STARTCHAR ordmasculine
ENCODING 186
SWIDTH 392 0
DWIDTH 8 0
BBX 7 7 1 6
BITMAP
1C
66
66
C6
CC
CC
70
ENDCHAR
STARTCHAR guillemotright
ENCODING 187
SWIDTH 527 0
DWIDTH 10 0
BBX 9 8 1 1
BITMAP
4400
6600
3300
1980
1100
2200
4400
8800
ENDCHAR
STARTCHAR onequarter
ENCODING 188
SWIDTH 865 0
DWIDTH 16 0
BBX 13 13 2 0
BITMAP
E060
60C0
6080
C180
C300
C600
C438
0C58
1898
3130
21F8
6030
C030
ENDCHAR
STARTCHAR onehalf
ENCODING 189
SWIDTH 865 0
DWIDTH 16 0
BBX 13 13 2 0
BITMAP
6060
E0C0
6080
6180
C300
C600
C470
0C98
1818
3030
2040
60F8
C1F8
ENDCHAR
STARTCHAR threequarters
ENCODING 190
SWIDTH 865 0
DWIDTH 16 0
BBX 15 13 0 0
BITMAP
7818
0C30
0C20
7060
18C0
1980
F10E
0316
0626
0C4C
087E
180C
300C
ENDCHAR
STARTCHAR questiondown
ENCODING 191
SWIDTH 464 0
DWIDTH 9 0
BBX 7 13 1 -3
BITMAP
06
06
00
00
04
0C
18
30
60
C0
C0
E6
7C
ENDCHAR
STARTCHAR Agrave
ENCODING 192
SWIDTH 687 0
DWIDTH 12 0
BBX 10 16 1 0
BITMAP
0E00
0300
0000
0300
0300
0500
0D80
0980
1980
1180
3180
3FC0
60C0
60C0
C0C0
C0C0
ENDCHAR
STARTCHAR Aacute
ENCODING 193
SWIDTH 687 0
DWIDTH 12 0
BBX 10 16 1 0
BITMAP
01C0
0300
0000
0300
0300
0500
0D80
0980
1980
1180
3180
3FC0
60C0
60C0
C0C0
C0C0
ENDCHAR
STARTCHAR Acircumflex
ENCODING 194
SWIDTH 687 0
DWIDTH 12 0
BBX 10 16 1 0
BITMAP
0300
0580
0000
0300
0300
0500
0D80
0980
1980
1180
3180
3FC0
60C0
60C0
C0C0
C0C0
ENDCHAR
STARTCHAR Atilde
ENCODING 195
SWIDTH 687 0
DWIDTH 12 0
BBX 10 16 1 0
BITMAP
0680
0B00
0000
0300
0300
0500
0D80
0980
1980
1180
3180
3FC0
60C0
60C0
C0C0
C0C0
ENDCHAR
STARTCHAR Adieresis
ENCODING 196
SWIDTH 687 0
DWIDTH 12 0
BBX 10 16 1 0
BITMAP
0480
0480
0000
0300
0300
0500
0D80
0980
1980
1180
3180
3FC0
60C0
60C0
C0C0
C0C0
ENDCHAR
STARTCHAR Aring
ENCODING 197
SWIDTH 687 0
DWIDTH 12 0
BBX 10 16 1 0
BITMAP
0700
0980
0700
0300
0300
0500
0D80
0980
1980
1180
3180
3FC0
60C0
60C0
C0C0
C0C0
ENDCHAR
STARTCHAR AE
ENCODING 198
SWIDTH 893 0
DWIDTH 17 0
BBX 17 13 1 0
BITMAP
003F80
007000
00B000
013000
036000
066000
0C7E00
186000
1FE000
30C000
60C000
C0C000
C0FE00
ENDCHAR
STARTCHAR Ccedilla
ENCODING 199
SWIDTH 679 0
DWIDTH 12 0
BBX 12 16 1 -3
BITMAP
07E0
1830
3000
6000
6000
C000
C000
C000
C000
C000
6000
7040
1F80
0C00
0600
1C00
ENDCHAR
STARTCHAR Egrave
ENCODING 200
SWIDTH 547 0
DWIDTH 10 0
BBX 9 16 2 0
BITMAP
0E00
0300
0000
3F80
3000
3000
3000
6000
6000
7E00
6000
6000
C000
C000
C000
FE00
ENDCHAR
STARTCHAR Eacute
ENCODING 201
SWIDTH 547 0
DWIDTH 10 0
BBX 9 16 2 0
BITMAP
0700
0C00
0000
3F80
3000
3000
3000
6000
6000
7E00
6000
6000
C000
C000
C000
FE00
ENDCHAR
STARTCHAR Ecircumflex
ENCODING 202
SWIDTH 547 0
DWIDTH 10 0
BBX 9 16 2 0
BITMAP
0600
0B00
0000
3F80
3000
3000
3000
6000
6000
7E00
6000
6000
C000
C000
C000
FE00
ENDCHAR
STARTCHAR Edieresis
ENCODING 203
SWIDTH 547 0
DWIDTH 10 0
BBX 9 16 2 0
BITMAP
0900
0900
0000
3F80
3000
3000
3000
6000
6000
7E00
6000
6000
C000
C000
C000
FE00
ENDCHAR
STARTCHAR Igrave
ENCODING 204
SWIDTH 289 0
DWIDTH 6 0
BBX 4 16 1 0
BITMAP
E0
30
00
30
30
30
30
60
60
60
60
60
C0
C0
C0
C0
ENDCHAR
STARTCHAR Iacute
ENCODING 205
SWIDTH 289 0
DWIDTH 6 0
BBX 6 16 1 0
BITMAP
1C
30
00
30
30
30
30
60
60
60
60
60
C0
C0
C0
C0
ENDCHAR
STARTCHAR Icircumflex
ENCODING 206
SWIDTH 289 0
DWIDTH 6 0
BBX 5 16 1 0
BITMAP
30
58
00
30
30
30
30
60
60
60
60
60
C0
C0
C0
C0
ENDCHAR
STARTCHAR Idieresis
ENCODING 207
SWIDTH 289 0
DWIDTH 6 0
BBX 5 16 1 0
BITMAP
48
48
00
30
30
30
30
60
60
60
60
60
C0
C0
C0
C0
ENDCHAR
STARTCHAR Eth
ENCODING 208
SWIDTH 743 0
DWIDTH 14 0
BBX 13 13 1 0
BITMAP
1FC0
1870
1830
1818
3018
3018
FE18
3018
3030
6030
6060
60C0
7F00
ENDCHAR
STARTCHAR Ntilde
ENCODING 209
SWIDTH 741 0
DWIDTH 14 0
BBX 11 16 2 0
BITMAP
0340
0580
0000
3820
3820
2C20
2C20
2C60
6640
4640
4340
4340
C380
8180
8180
8180
ENDCHAR
STARTCHAR Ograve
ENCODING 210
SWIDTH 777 0
DWIDTH 14 0
BBX 13 16 1 0
BITMAP
0700
0180
0000
07C0
1870
3030
6018
6018
C018
C018
C018
C030
C030
6060
70C0
1F00
ENDCHAR
STARTCHAR Oacute
ENCODING 211
SWIDTH 777 0
DWIDTH 14 0
BBX 13 16 1 0
BITMAP
01C0
0300
0000
07C0
1870
3030
6018
6018
C018
C018
C018
C030
C030
6060
70C0
1F00
ENDCHAR
STARTCHAR Ocircumflex
ENCODING 212
SWIDTH 777 0
DWIDTH 14 0
BBX 13 16 1 0
BITMAP
0180
02C0
0000
07C0
1870
3030
6018
6018
C018
C018
C018
C030
C030
6060
70C0
1F00
ENDCHAR
STARTCHAR Otilde
ENCODING 213
SWIDTH 777 0
DWIDTH 14 0
BBX 13 16 1 0
BITMAP
0340
0580
0000
07C0
1870
3030
6018
6018
C018
C018
C018
C030
C030
6060
70C0
1F00
ENDCHAR
STARTCHAR Odieresis
ENCODING 214
SWIDTH 777 0
DWIDTH 14 0
BBX 13 16 1 0
BITMAP
0480
0480
0000
07C0
1870
3030
6018
6018
C018
C018
C018
C030
C030
6060
70C0
1F00
ENDCHAR
STARTCHAR multiply
ENCODING 215
SWIDTH 633 0
DWIDTH 12 0
BBX 8 9 3 1
BITMAP
61
22
34
18
18
18
2C
44
86
ENDCHAR
STARTCHAR Oslash
ENCODING 216
SWIDTH 777 0
DWIDTH 14 0
BBX 13 15 1 -1
BITMAP
0008
07D8
1870
3070
60D8
6198
C318
C218
C618
CC30
D830
7060
70C0
DF00
8000
ENDCHAR
STARTCHAR Ugrave
ENCODING 217
SWIDTH 693 0
DWIDTH 13 0
BBX 12 16 1 0
BITMAP
0700
0180
0000
3030
3030
3030
3030
6020
6060
6060
6060
C040
C0C0
C080
6180
3E00
ENDCHAR
STARTCHAR Uacute
ENCODING 218
SWIDTH 693 0
DWIDTH 13 0
BBX 12 16 1 0
BITMAP
0700
0180
0000
3030
3030
3030
3030
6020
6060
6060
6060
C040
C0C0
C080
6180
3E00
ENDCHAR
STARTCHAR Ucircumflex
ENCODING 219
SWIDTH 693 0
DWIDTH 13 0
BBX 12 16 1 0
BITMAP
0180
02C0
0000
3030
3030
3030
3030
6020
6060
6060
6060
C040
C0C0
C080
6180
3E00
ENDCHAR
STARTCHAR Udieresis
ENCODING 220
SWIDTH 693 0
DWIDTH 13 0
BBX 12 16 1 0
BITMAP
0480
0480
0000
3030
3030
3030
3030
6020
6060
6060
6060
C040
C0C0
C080
6180
3E00
ENDCHAR
STARTCHAR Yacute
ENCODING 221
SWIDTH 608 0
DWIDTH 11 0
BBX 11 16 2 0
BITMAP
0380
0600
0000
C060
C060
60C0
6180
3300
3600
1C00
1800
1800
3000
3000
3000
3000
ENDCHAR
STARTCHAR Thorn
ENCODING 222
SWIDTH 575 0
DWIDTH 12 0
BBX 10 13 2 0
BITMAP
3000
3000
3000
3F80
61C0
60C0
60C0
61C0
6380
FE00
C000
C000
C000
ENDCHAR
STARTCHAR germandbls
ENCODING 223
SWIDTH 595 0
DWIDTH 11 0
BBX 10 16 1 -2
BITMAP
0780
08C0
18C0
1880
1900
3200
3200
3300
3380
61C0
60C0
6040
60C0
C780
C000
C000
ENDCHAR
STARTCHAR agrave
ENCODING 224
SWIDTH 608 0
DWIDTH 11 0
BBX 10 13 1 0
BITMAP
0E00
0300
0000
0FC0
31C0
60C0
6180
C180
C380
C580
CB00
FB00
7300
ENDCHAR
STARTCHAR aacute
ENCODING 225
SWIDTH 608 0
DWIDTH 11 0
BBX 10 13 1 0
BITMAP
0380
0600
0000
0FC0
31C0
60C0
6180
C180
C380
C580
CB00
FB00
7300
ENDCHAR
STARTCHAR acircumflex
ENCODING 226
SWIDTH 608 0
DWIDTH 11 0
BBX 10 13 1 0
BITMAP
0300
0580
0000
0FC0
31C0
60C0
6180
C180
C380
C580
CB00
FB00
7300
ENDCHAR
STARTCHAR atilde
ENCODING 227
SWIDTH 608 0
DWIDTH 11 0
BBX 10 13 1 0
BITMAP
0680
0B00
0000
0FC0
31C0
60C0
6180
C180
C380
C580
CB00
FB00
7300
ENDCHAR
STARTCHAR adieresis
ENCODING 228
SWIDTH 608 0
DWIDTH 11 0
BBX 10 13 1 0
BITMAP
0480
0480
0000
0FC0
31C0
60C0
6180
C180
C380
C580
CB00
FB00
7300
ENDCHAR
STARTCHAR aring
ENCODING 229
SWIDTH 608 0
DWIDTH 11 0
BBX 10 13 1 0
BITMAP
0700
0980
0700
0FC0
31C0
60C0
6180
C180
C380
C580
CB00
FB00
7300
ENDCHAR
STARTCHAR ae
ENCODING 230
SWIDTH 893 0
DWIDTH 17 0
BBX 15 10 1 0
BITMAP
0F9C
31E6
60C6
61C6
C18C
C3F0
C580
C980
F9C4
70F8
ENDCHAR
STARTCHAR ccedilla
ENCODING 231
SWIDTH 503 0
DWIDTH 9 0
BBX 8 13 1 -3
BITMAP
0E
33
60
60
C0
C0
C0
C0
E4
78
30
18
70
ENDCHAR
STARTCHAR egrave
ENCODING 232
SWIDTH 529 0
DWIDTH 10 0
BBX 8 13 1 0
BITMAP
1C
06
00
0E
33
63
63
C6
F8
C0
C0
E2
7C
ENDCHAR
STARTCHAR eacute
ENCODING 233
SWIDTH 529 0
DWIDTH 10 0
BBX 8 13 1 0
BITMAP
07
0C
00
0E
33
63
63
C6
F8
C0
C0
E2
7C
ENDCHAR
STARTCHAR ecircumflex
ENCODING 234
SWIDTH 529 0
DWIDTH 10 0
BBX 8 13 1 0
BITMAP
0C
16
00
0E
33
63
63
C6
F8
C0
C0
E2
7C
ENDCHAR
STARTCHAR edieresis
ENCODING 235
SWIDTH 529 0
DWIDTH 10 0
BBX 8 13 1 0
BITMAP
12
12
00
0E
33
63
63
C6
F8
C0
C0
E2
7C
ENDCHAR
STARTCHAR igrave
ENCODING 236
SWIDTH 289 0
DWIDTH 6 0
BBX 4 13 1 0
BITMAP
E0
30
00
30
30
30
60
60
60
60
C0
C0
C0
ENDCHAR
STARTCHAR iacute
ENCODING 237
SWIDTH 289 0
DWIDTH 6 0
BBX 6 13 1 0
BITMAP
1C
30
00
30
30
30
60
60
60
60
C0
C0
C0
ENDCHAR
STARTCHAR icircumflex
ENCODING 238
SWIDTH 289 0
DWIDTH 6 0
BBX 5 13 1 0
BITMAP
30
58
00
30
30
30
60
60
60
60
C0
C0
C0
ENDCHAR
STARTCHAR idieresis
ENCODING 239
SWIDTH 289 0
DWIDTH 6 0
BBX 5 13 1 0
BITMAP
48
48
00
30
30
30
60
60
60
60
C0
C0
C0
ENDCHAR
STARTCHAR eth
ENCODING 240
SWIDTH 556 0
DWIDTH 10 0
BBX 10 14 1 0
BITMAP
0E00
03C0
0F00
0180
0F80
3380
6180
6180
C180
C180
C300
C300
E600
7800
ENDCHAR
STARTCHAR ntilde
ENCODING 241
SWIDTH 620 0
DWIDTH 12 0
BBX 10 13 1 0
BITMAP
0680
0B00
0000
3380
37C0
34C0
68C0
7180
6180
6180
C300
C300
C300
ENDCHAR
STARTCHAR ograve
ENCODING 242
SWIDTH 566 0
DWIDTH 11 0
BBX 9 13 1 0
BITMAP
1C00
0600
0000
0F00
3380
6180
6180
C180
C180
C300
C300
E600
7800
ENDCHAR
STARTCHAR oacute
ENCODING 243
SWIDTH 566 0
DWIDTH 11 0
BBX 9 13 1 0
BITMAP
0700
0C00
0000
0F00
3380
6180
6180
C180
C180
C300
C300
E600
7800
ENDCHAR
STARTCHAR ocircumflex
ENCODING 244
SWIDTH 566 0
DWIDTH 11 0
BBX 9 13 1 0
BITMAP
0600
0B00
0000
0F00
3380
6180
6180
C180
C180
C300
C300
E600
7800
ENDCHAR
STARTCHAR otilde
ENCODING 245
SWIDTH 566 0
DWIDTH 11 0
BBX 9 13 1 0
BITMAP
0D00
1600
0000
0F00
3380
6180
6180
C180
C180
C300
C300
E600
7800
ENDCHAR
STARTCHAR odieresis
ENCODING 246
SWIDTH 566 0
DWIDTH 11 0
BBX 9 13 1 0
BITMAP
0900
0900
0000
0F00
3380
6180
6180
C180
C180
C300
C300
E600
7800
ENDCHAR
STARTCHAR divide
ENCODING 247
SWIDTH 633 0
DWIDTH 12 0
BBX 9 9 2 1
BITMAP
0400
0400
0000
0000
FF80
0000
0000
1000
1000
ENDCHAR
STARTCHAR oslash
ENCODING 248
SWIDTH 566 0
DWIDTH 11 0
BBX 11 12 0 -1
BITMAP
0020
07A0
19C0
31C0
32C0
64C0
64C0
6980
7180
7300
BC00
8000
ENDCHAR
STARTCHAR ugrave
ENCODING 249
SWIDTH 620 0
DWIDTH 11 0
BBX 10 13 1 0
BITMAP
0E00
0300
0000
30C0
30C0
30C0
6180
6180
6380
C580
CB00
FB00
7300
ENDCHAR
STARTCHAR uacute
ENCODING 250
SWIDTH 620 0
DWIDTH 11 0
BBX 10 13 1 0
BITMAP
0380
0600
0000
30C0
30C0
30C0
6180
6180
6380
C580
CB00
FB00
7300
ENDCHAR
STARTCHAR ucircumflex
ENCODING 251
SWIDTH 620 0
DWIDTH 11 0
BBX 10 13 1 0
BITMAP
0300
0580
0000
30C0
30C0
30C0
6180
6180
6380
C580
CB00
FB00
7300
ENDCHAR
STARTCHAR udieresis
ENCODING 252
SWIDTH 620 0
DWIDTH 11 0
BBX 10 13 1 0
BITMAP
0900
0900
0000
30C0
30C0
30C0
6180
6180
6380
C580
CB00
FB00
7300
ENDCHAR
STARTCHAR yacute
ENCODING 253
SWIDTH 548 0
DWIDTH 10 0
BBX 10 16 0 -3
BITMAP
0380
0600
0000
30C0
30C0
30C0
3080
3180
3100
3200
3400
3800
3000
6000
C000
C000
ENDCHAR
STARTCHAR thorn
ENCODING 254
SWIDTH 608 0
DWIDTH 11 0
BBX 11 16 0 -3
BITMAP
1800
1800
1800
19C0
33E0
3260
3460
3860
3060
70C0
60C0
7180
7E00
C000
C000
C000
ENDCHAR
STARTCHAR ydieresis
ENCODING 255
SWIDTH 548 0
DWIDTH 10 0
BBX 10 16 0 -3
BITMAP
0900
0900
0000
30C0
30C0
30C0
3080
3180
3100
3200
3400
3800
3000
6000
C000
C000
ENDCHAR
STARTCHAR Amacron
ENCODING 256
SWIDTH 687 0
DWIDTH 12 0
BBX 10 15 1 0
BITMAP
0F00
0000
0300
0300
0500
0D80
0980
1980
1180
3180
3FC0
60C0
60C0
C0C0
C0C0
ENDCHAR
STARTCHAR amacron
ENCODING 257
SWIDTH 608 0
DWIDTH 11 0
BBX 10 12 1 0
BITMAP
0F00
0000
0FC0
31C0
60C0
6180
C180
C380
C580
CB00
FB00
7300
ENDCHAR
STARTCHAR Abreve
ENCODING 258
SWIDTH 687 0
DWIDTH 12 0
BBX 10 16 1 0
BITMAP
0880
0700
0000
0300
0300
0500
0D80
0980
1980
1180
3180
3FC0
60C0
60C0
C0C0
C0C0
ENDCHAR
STARTCHAR abreve
ENCODING 259
SWIDTH 608 0
DWIDTH 11 0
BBX 10 13 1 0
BITMAP
1100
0E00
0000
0FC0
31C0
60C0
6180
C180
C380
C580
CB00
FB00
7300
ENDCHAR
STARTCHAR Aogonek
ENCODING 260
SWIDTH 687 0
DWIDTH 12 0
BBX 10 16 1 -3
BITMAP
0300
0300
0500
0D80
0980
1980
1180
3180
3FC0
60C0
60C0
C0C0
C0C0
0C00
1800
0E00
ENDCHAR
STARTCHAR aogonek
ENCODING 261
SWIDTH 608 0
DWIDTH 11 0
BBX 10 13 1 -3
BITMAP
0FC0
31C0
60C0
6180
C180
C380
C580
CB00
FB00
7300
1800
3000
1C00
ENDCHAR
STARTCHAR Cacute
ENCODING 262
SWIDTH 679 0
DWIDTH 12 0
BBX 12 16 1 0
BITMAP
0380
0600
0000
07E0
1830
3000
6000
6000
C000
C000
C000
C000
C000
6000
7040
1F80
ENDCHAR
STARTCHAR cacute
ENCODING 263
SWIDTH 503 0
DWIDTH 9 0
BBX 8 13 1 0
BITMAP
0E
18
00
0E
33
60
60
C0
C0
C0
C0
E4
78
ENDCHAR
STARTCHAR Ccircumflex
ENCODING 264
SWIDTH 679 0
DWIDTH 12 0
BBX 12 16 1 0
BITMAP
0600
0B00
0000
07E0
1830
3000
6000
6000
C000
C000
C000
C000
C000
6000
7040
1F80
ENDCHAR
STARTCHAR ccircumflex
ENCODING 265
SWIDTH 503 0
DWIDTH 9 0
BBX 8 13 1 0
BITMAP
18
2C
00
0E
33
60
60
C0
C0
C0
C0
E4
78
ENDCHAR
STARTCHAR Cdotaccent
ENCODING 266
SWIDTH 679 0
DWIDTH 12 0
BBX 12 16 1 0
BITMAP
0600
0600
0000
07E0
1830
3000
6000
6000
C000
C000
C000
C000
C000
6000
7040
1F80
ENDCHAR
STARTCHAR cdotaccent
ENCODING 267
SWIDTH 503 0
DWIDTH 9 0
BBX 8 13 1 0
BITMAP
18
18
00
0E
33
60
60
C0
C0
C0
C0
E4
78
ENDCHAR
STARTCHAR Ccaron
ENCODING 268
SWIDTH 679 0
DWIDTH 12 0
BBX 12 16 1 0
BITMAP
0B00
0600
0000
07E0
1830
3000
6000
6000
C000
C000
C000
C000
C000
6000
7040
1F80
ENDCHAR
STARTCHAR ccaron
ENCODING 269
SWIDTH 503 0
DWIDTH 9 0
BBX 8 13 1 0
BITMAP
2C
18
00
0E
33
60
60
C0
C0
C0
C0
E4
78
ENDCHAR
STARTCHAR Dcaron
ENCODING 270
SWIDTH 743 0
DWIDTH 14 0
BBX 12 16 2 0
BITMAP
0B00
0600
0000
3F80
30E0
3060
3030
6030
6030
6030
6030
6060
C060
C0C0
C180
FE00
ENDCHAR
STARTCHAR dcaron
ENCODING 271
SWIDTH 795 0
DWIDTH 14 0
BBX 14 14 1 0
BITMAP
006C
006C
0068
0070
0FC0
31C0
60C0
6180
C180
C380
C580
CB00
FB00
7300
ENDCHAR
STARTCHAR Dcroat
ENCODING 272
SWIDTH 743 0
DWIDTH 14 0
BBX 13 13 1 0
BITMAP
1FC0
1870
1830
1818
3018
3018
FE18
3018
3030
6030
6060
60C0
7F00
ENDCHAR
STARTCHAR dcroat
ENCODING 273
SWIDTH 608 0
DWIDTH 11 0
BBX 11 14 1 0
BITMAP
0060
0060
03E0
0060
0FC0
31C0
60C0
6180
C180
C380
C580
CB00
FB00
7300
ENDCHAR
STARTCHAR Emacron
ENCODING 274
SWIDTH 547 0
DWIDTH 10 0
BBX 9 15 2 0
BITMAP
3C00
0000
3F80
3000
3000
3000
6000
6000
7E00
6000
6000
C000
C000
C000
FE00
ENDCHAR
STARTCHAR emacron
ENCODING 275
SWIDTH 529 0
DWIDTH 10 0
BBX 8 12 1 0
BITMAP
1E
00
0E
33
63
63
C6
F8
C0
C0
E2
7C
ENDCHAR
STARTCHAR Ebreve
ENCODING 276
SWIDTH 547 0
DWIDTH 10 0
BBX 9 16 2 0
BITMAP
2200
1C00
0000
3F80
3000
3000
3000
6000
6000
7E00
6000
6000
C000
C000
C000
FE00
ENDCHAR
STARTCHAR ebreve
ENCODING 277
SWIDTH 529 0
DWIDTH 10 0
BBX 8 13 1 0
BITMAP
22
1C
00
0E
33
63
63
C6
F8
C0
C0
E2
7C
ENDCHAR
STARTCHAR Edotaccent
ENCODING 278
SWIDTH 547 0
DWIDTH 10 0
BBX 9 16 2 0
BITMAP
1800
1800
0000
3F80
3000
3000
3000
6000
6000
7E00
6000
6000
C000
C000
C000
FE00
ENDCHAR
STARTCHAR edotaccent
ENCODING 279
SWIDTH 529 0
DWIDTH 10 0
BBX 8 13 1 0
BITMAP
0C
0C
00
0E
33
63
63
C6
F8
C0
C0
E2
7C
ENDCHAR
STARTCHAR Eogonek
ENCODING 280
SWIDTH 547 0
DWIDTH 10 0
BBX 9 16 2 -3
BITMAP
3F80
3000
3000
3000
6000
6000
7E00
6000
6000
C000
C000
C000
FE00
3000
6000
3800
ENDCHAR
STARTCHAR eogonek
ENCODING 281
SWIDTH 529 0
DWIDTH 10 0
BBX 8 13 1 -3
BITMAP
0E
33
63
63
C6
F8
C0
C0
E2
7C
30
60
38
ENDCHAR
STARTCHAR Ecaron
ENCODING 282
SWIDTH 547 0
DWIDTH 10 0
BBX 9 16 2 0
BITMAP
2C00
1800
0000
3F80
3000
3000
3000
6000
6000
7E00
6000
6000
C000
C000
C000
FE00
ENDCHAR
STARTCHAR ecaron
ENCODING 283
SWIDTH 529 0
DWIDTH 10 0
BBX 8 13 1 0
BITMAP
16
0C
00
0E
33
63
63
C6
F8
C0
C0
E2
7C
ENDCHAR
STARTCHAR Gcircumflex
ENCODING 284
SWIDTH 702 0
DWIDTH 13 0
BBX 12 16 1 0
BITMAP
0600
0B00
0000
07E0
1830
3000
6000
6000
C000
C000
C060
C060
C060
60C0
70C0
1FC0
ENDCHAR
STARTCHAR gcircumflex
ENCODING 285
SWIDTH 608 0
DWIDTH 11 0
BBX 11 16 0 -3
BITMAP
0600
0B00
0000
07E0
18E0
3060
30C0
60C0
61C0
62C0
6580
7D80
3980
0100
C300
7C00
ENDCHAR
STARTCHAR Gbreve
ENCODING 286
SWIDTH 702 0
DWIDTH 13 0
BBX 12 16 1 0
BITMAP
0880
0700
0000
07E0
1830
3000
6000
6000
C000
C000
C060
C060
C060
60C0
70C0
1FC0
ENDCHAR
STARTCHAR gbreve
ENCODING 287
SWIDTH 608 0
DWIDTH 11 0
BBX 11 16 0 -3
BITMAP
0880
0700
0000
07E0
18E0
3060
30C0
60C0
61C0
62C0
6580
7D80
3980
0100
C300
7C00
ENDCHAR
STARTCHAR Gdotaccent
ENCODING 288
SWIDTH 702 0
DWIDTH 13 0
BBX 12 16 1 0
BITMAP
0600
0600
0000
07E0
1830
3000
6000
6000
C000
C000
C060
C060
C060
60C0
70C0
1FC0
ENDCHAR
STARTCHAR gdotaccent
ENCODING 289
SWIDTH 608 0
DWIDTH 11 0
BBX 11 16 0 -3
BITMAP
0300
0300
0000
07E0
18E0
3060
30C0
60C0
61C0
62C0
6580
7D80
3980
0100
C300
7C00
ENDCHAR
STARTCHAR Gcommaaccent
ENCODING 290
SWIDTH 702 0
DWIDTH 13 0
BBX 12 18 1 -5
BITMAP
07E0
1830
3000
6000
6000
C000
C000
C060
C060
C060
60C0
70C0
1FC0
0000
0600
0600
0400
0800
ENDCHAR
STARTCHAR gcommaaccent
ENCODING 291
SWIDTH 608 0
DWIDTH 11 0
BBX 11 18 0 -3
BITMAP
0100
0200
0600
0600
0000
07E0
18E0
3060
30C0
60C0
61C0
62C0
6580
7D80
3980
0100
C300
7C00
ENDCHAR
STARTCHAR Hcircumflex
ENCODING 292
SWIDTH 735 0
DWIDTH 14 0
BBX 12 16 2 0
BITMAP
0300
0580
0000
3030
3030
3030
3030
6060
6060
7FE0
6060
6060
C0C0
C0C0
C0C0
C0C0
ENDCHAR
STARTCHAR hcircumflex
ENCODING 293
SWIDTH 620 0
DWIDTH 12 0
BBX 10 17 1 0
BITMAP
1800
2C00
0000
1800
1800
1800
1800
3380
37C0
34C0
68C0
7180
6180
6180
C300
C300
C300
ENDCHAR
STARTCHAR Hbar
ENCODING 294
SWIDTH 735 0
DWIDTH 14 0
BBX 12 13 2 0
BITMAP
3030
3030
FFF0
3030
6060
6060
7FE0
6060
6060
C0C0
C0C0
C0C0
C0C0
ENDCHAR
STARTCHAR hbar
ENCODING 295
SWIDTH 620 0
DWIDTH 12 0
BBX 10 14 1 0
BITMAP
1800
1800
7800
1800
3380
37C0
34C0
68C0
7180
6180
6180
C300
C300
C300
ENDCHAR
STARTCHAR Itilde
ENCODING 296
SWIDTH 289 0
DWIDTH 6 0
BBX 5 16 1 0
BITMAP
68
B0
00
30
30
30
30
60
60
60
60
60
C0
C0
C0
C0
ENDCHAR
STARTCHAR itilde
ENCODING 297
SWIDTH 289 0
DWIDTH 6 0
BBX 5 13 1 0
BITMAP
68
B0
00
30
30
30
60
60
60
60
C0
C0
C0
ENDCHAR
STARTCHAR Imacron
ENCODING 298
SWIDTH 289 0
DWIDTH 6 0
BBX 5 15 1 0
BITMAP
78
00
30
30
30
30
60
60
60
60
60
C0
C0
C0
C0
ENDCHAR
STARTCHAR imacron
ENCODING 299
SWIDTH 289 0
DWIDTH 6 0
BBX 5 12 1 0
BITMAP
78
00
30
30
30
60
60
60
60
C0
C0
C0
ENDCHAR
STARTCHAR Ibreve
ENCODING 300
SWIDTH 289 0
DWIDTH 6 0
BBX 5 16 1 0
BITMAP
88
70
00
30
30
30
30
60
60
60
60
60
C0
C0
C0
C0
ENDCHAR
STARTCHAR ibreve
ENCODING 301
SWIDTH 289 0
DWIDTH 6 0
BBX 5 13 1 0
BITMAP
88
70
00
30
30
30
60
60
60
60
C0
C0
C0
ENDCHAR
STARTCHAR Iogonek
ENCODING 302
SWIDTH 289 0
DWIDTH 6 0
BBX 5 16 0 -3
BITMAP
18
18
18
18
30
30
30
30
30
60
60
60
60
60
C0
70
ENDCHAR
STARTCHAR iogonek
ENCODING 303
SWIDTH 289 0
DWIDTH 6 0
BBX 6 17 1 -3
BITMAP
0C
18
00
00
30
30
30
60
60
60
60
C0
C0
C0
60
C0
70
ENDCHAR
STARTCHAR Idotaccent
ENCODING 304
SWIDTH 289 0
DWIDTH 6 0
BBX 4 16 1 0
BITMAP
30
30
00
30
30
30
30
60
60
60
60
60
C0
C0
C0
C0
ENDCHAR
STARTCHAR dotlessi
ENCODING 305
SWIDTH 289 0
DWIDTH 6 0
BBX 4 10 1 0
BITMAP
30
30
30
60
60
60
60
C0
C0
C0
ENDCHAR
STARTCHAR IJ
ENCODING 306
SWIDTH 683 0
DWIDTH 14 0
BBX 12 15 1 -2
BITMAP
3030
3030
3030
3030
6060
6060
6060
6060
6060
C0C0
C0C0
C0C0
C080
0180
0F00
ENDCHAR
STARTCHAR ij
ENCODING 307
SWIDTH 600 0
DWIDTH 12 0
BBX 12 17 1 -3
BITMAP
0C30
1860
0000
0000
30C0
30C0
30C0
6180
6180
6180
6180
C300
C300
C300
0300
0600
3C00
ENDCHAR
STARTCHAR Jcircumflex
ENCODING 308
SWIDTH 408 0
DWIDTH 8 0
BBX 8 18 -1 -2
BITMAP
06
0B
00
03
03
03
03
06
06
06
06
06
0C
0C
0C
08
18
F0
ENDCHAR
STARTCHAR jcircumflex
ENCODING 309
SWIDTH 325 0
DWIDTH 6 0
BBX 10 16 -3 -3
BITMAP
0600
0B00
0000
0300
0300
0300
0600
0600
0600
0600
0C00
0C00
0C00
0C00
1800
F000
ENDCHAR
STARTCHAR Kcommaaccent
ENCODING 310
SWIDTH 635 0
DWIDTH 12 0
BBX 10 18 2 -5
BITMAP
30C0
30C0
3180
3300
6600
6C00
7800
6C00
6600
C600
C300
C180
C180
0000
0C00
0C00
0800
1000
ENDCHAR
STARTCHAR kcommaaccent
ENCODING 311
SWIDTH 572 0
DWIDTH 10 0
BBX 9 19 1 -5
BITMAP
1800
1800
1800
1800
3180
3180
3300
6400
7800
7800
6C00
CE00
C700
C380
0000
1800
1800
1000
2000
ENDCHAR
STARTCHAR kgreenlandic
ENCODING 312
SWIDTH 572 0
DWIDTH 10 0
BBX 9 10 1 0
BITMAP
3180
3180
3300
6400
7800
7800
6C00
CE00
C700
C380
ENDCHAR
STARTCHAR Lacute
ENCODING 313
SWIDTH 545 0
DWIDTH 10 0
BBX 8 16 2 0
BITMAP
1C
30
00
30
30
30
30
60
60
60
60
60
C0
C0
C0
FF
ENDCHAR
STARTCHAR lacute
ENCODING 314
SWIDTH 289 0
DWIDTH 6 0
BBX 6 17 1 0
BITMAP
1C
30
00
18
18
18
18
30
30
30
60
60
60
60
C0
C0
C0
ENDCHAR
STARTCHAR Lcommaaccent
ENCODING 315
SWIDTH 545 0
DWIDTH 10 0
BBX 8 18 2 -5
BITMAP
30
30
30
30
60
60
60
60
60
C0
C0
C0
FF
00
30
30
20
40
ENDCHAR
STARTCHAR lcommaaccent
ENCODING 316
SWIDTH 289 0
DWIDTH 6 0
BBX 5 19 1 -5
BITMAP
18
18
18
18
30
30
30
60
60
60
60
C0
C0
C0
00
60
60
40
80
ENDCHAR
STARTCHAR Lcaron
ENCODING 317
SWIDTH 735 0
DWIDTH 14 0
BBX 13 14 2 0
BITMAP
0018
3018
3010
3020
3000
6000
6000
6000
6000
6000
C000
C000
C000
FF00
ENDCHAR
STARTCHAR lcaron
ENCODING 318
SWIDTH 492 0
DWIDTH 10 0
BBX 10 14 1 0
BITMAP
18C0
18C0
1880
1900
3000
3000
3000
6000
6000
6000
6000
C000
C000
C000
ENDCHAR
STARTCHAR Ldot
ENCODING 319
SWIDTH 834 0
DWIDTH 22 0
BBX 16 13 2 0
BITMAP
3000
3000
3000
3000
6000
6000
6007
6007
6007
C000
C000
C000
FF00
ENDCHAR
STARTCHAR ldot
ENCODING 320
SWIDTH 591 0
DWIDTH 18 0
BBX 13 14 1 0
BITMAP
1800
1800
1800
1800
3000
3000
3000
6038
6038
6038
6000
C000
C000
C000
ENDCHAR
STARTCHAR Lslash
ENCODING 321
SWIDTH 545 0
DWIDTH 10 0
BBX 9 13 1 0
BITMAP
1800
1800
1800
1800
3000
3C00
F000
3000
3000
6000
6000
6000
7F80
ENDCHAR
STARTCHAR lslash
ENCODING 322
SWIDTH 289 0
DWIDTH 6 0
BBX 7 14 0 0
BITMAP
0C
0C
0C
0C
18
18
1E
F0
30
30
30
60
60
60
ENDCHAR
STARTCHAR Nacute
ENCODING 323
SWIDTH 741 0
DWIDTH 14 0
BBX 11 16 2 0
BITMAP
0700
0C00
0000
3820
3820
2C20
2C20
2C60
6640
4640
4340
4340
C380
8180
8180
8180
ENDCHAR
STARTCHAR nacute
ENCODING 324
SWIDTH 620 0
DWIDTH 12 0
BBX 10 13 1 0
BITMAP
0700
0C00
0000
3380
37C0
34C0
68C0
7180
6180
6180
C300
C300
C300
ENDCHAR
STARTCHAR Ncommaaccent
ENCODING 325
SWIDTH 741 0
DWIDTH 14 0
BBX 11 18 2 -5
BITMAP
3820
3820
2C20
2C20
2C60
6640
4640
4340
4340
C380
8180
8180
8180
0000
0600
0600
0400
0800
ENDCHAR
STARTCHAR ncommaaccent
ENCODING 326
SWIDTH 620 0
DWIDTH 12 0
BBX 10 15 1 -5
BITMAP
3380
37C0
34C0
68C0
7180
6180
6180
C300
C300
C300
0000
0C00
0C00
0800
1000
ENDCHAR
STARTCHAR Ncaron
ENCODING 327
SWIDTH 741 0
DWIDTH 14 0
BBX 11 16 2 0
BITMAP
0B00
0600
0000
3820
3820
2C20
2C20
2C60
6640
4640
4340
4340
C380
8180
8180
8180
ENDCHAR
STARTCHAR ncaron
ENCODING 328
SWIDTH 620 0
DWIDTH 12 0
BBX 10 13 1 0
BITMAP
0B00
0600
0000
3380
37C0
34C0
68C0
7180
6180
6180
C300
C300
C300
ENDCHAR
STARTCHAR napostrophe
ENCODING 329
SWIDTH 826 0
DWIDTH 16 0
BBX 13 14 2 0
BITMAP
6000
6000
4000
8000
0670
06F8
0698
0D18
0E30
0C30
0C30
1860
1860
1860
ENDCHAR
STARTCHAR Eng
ENCODING 330
SWIDTH 741 0
DWIDTH 14 0
BBX 11 16 2 -3
BITMAP
3820
3820
2C20
2C20
2C60
6640
4640
4340
4340
C380
8380
8380
8380
0300
0600
3C00
ENDCHAR
STARTCHAR eng
ENCODING 331
SWIDTH 620 0
DWIDTH 12 0
BBX 10 13 1 -3
BITMAP
3380
37C0
34C0
68C0
7180
6180
6180
C300
C300
C300
0300
0600
3C00
ENDCHAR
STARTCHAR Omacron
ENCODING 332
SWIDTH 777 0
DWIDTH 14 0
BBX 13 15 1 0
BITMAP
0780
0000
07C0
1870
3030
6018
6018
C018
C018
C018
C030
C030
6060
70C0
1F00
ENDCHAR
STARTCHAR omacron
ENCODING 333
SWIDTH 566 0
DWIDTH 11 0
BBX 9 12 1 0
BITMAP
1E00
0000
0F00
3380
6180
6180
C180
C180
C300
C300
E600
7800
ENDCHAR
STARTCHAR Obreve
ENCODING 334
SWIDTH 777 0
DWIDTH 14 0
BBX 13 16 1 0
BITMAP
0440
0380
0000
07C0
1870
3030
6018
6018
C018
C018
C018
C030
C030
6060
70C0
1F00
ENDCHAR
STARTCHAR obreve
ENCODING 335
SWIDTH 566 0
DWIDTH 11 0
BBX 9 13 1 0
BITMAP
1100
0E00
0000
0F00
3380
6180
6180
C180
C180
C300
C300
E600
7800
ENDCHAR
STARTCHAR Ohungarumlaut
ENCODING 336
SWIDTH 777 0
DWIDTH 14 0
BBX 13 16 1 0
BITMAP
06C0
0480
0000
07C0
1870
3030
6018
6018
C018
C018
C018
C030
C030
6060
70C0
1F00
ENDCHAR
STARTCHAR ohungarumlaut
ENCODING 337
SWIDTH 566 0
DWIDTH 11 0
BBX 9 13 1 0
BITMAP
1B00
1200
0000
0F00
3380
6180
6180
C180
C180
C300
C300
E600
7800
ENDCHAR
STARTCHAR OE
ENCODING 338
SWIDTH 1005 0
DWIDTH 19 0
BBX 17 13 2 0
BITMAP
07FF80
187000
303000
603000
606000
C06000
C07E00
C06000
C06000
C0C000
60C000
71C000
1FFE00
ENDCHAR
STARTCHAR oe
ENCODING 339
SWIDTH 899 0
DWIDTH 17 0
BBX 15 10 1 0
BITMAP
0F3C
33E6
61C6
61C6
C18C
C1F0
C380
C380
E7C4
78F8
ENDCHAR
STARTCHAR Racute
ENCODING 340
SWIDTH 632 0
DWIDTH 12 0
BBX 10 16 2 0
BITMAP
0700
0C00
0000
3F80
31C0
30C0
30C0
6180
6300
7C00
6600
6600
C300
C300
C180
C1C0
ENDCHAR
STARTCHAR racute
ENCODING 341
SWIDTH 478 0
DWIDTH 9 0
BBX 8 13 1 0
BITMAP
0E
18
00
33
37
34
68
70
60
60
C0
C0
C0
ENDCHAR
STARTCHAR Rcommaaccent
ENCODING 342
SWIDTH 632 0
DWIDTH 12 0
BBX 10 18 2 -5
BITMAP
3F80
31C0
30C0
30C0
6180
6300
7C00
6600
6600
C300
C300
C180
C1C0
0000
0C00
0C00
0800
1000
ENDCHAR
STARTCHAR rcommaaccent
ENCODING 343
SWIDTH 478 0
DWIDTH 9 0
BBX 8 15 1 -5
BITMAP
33
37
34
68
70
60
60
C0
C0
C0
00
60
60
40
80
ENDCHAR
STARTCHAR Rcaron
ENCODING 344
SWIDTH 632 0
DWIDTH 12 0
BBX 10 16 2 0
BITMAP
0B00
0600
0000
3F80
31C0
30C0
30C0
6180
6300
7C00
6600
6600
C300
C300
C180
C1C0
ENDCHAR
STARTCHAR rcaron
ENCODING 345
SWIDTH 478 0
DWIDTH 9 0
BBX 8 13 1 0
BITMAP
16
0C
00
33
37
34
68
70
60
60
C0
C0
C0
ENDCHAR
STARTCHAR Sacute
ENCODING 346
SWIDTH 553 0
DWIDTH 10 0
BBX 9 16 1 0
BITMAP
0E00
1800
0000
1F00
3980
3000
3000
1800
1C00
0E00
0600
0300
0300
0300
C600
7C00
ENDCHAR
STARTCHAR sacute
ENCODING 347
SWIDTH 489 0
DWIDTH 9 0
BBX 8 13 1 0
BITMAP
0E
18
00
1E
23
60
70
38
1C
0E
06
C4
78
ENDCHAR
STARTCHAR Scircumflex
ENCODING 348
SWIDTH 553 0
DWIDTH 10 0
BBX 9 16 1 0
BITMAP
0C00
1600
0000
1F00
3980
3000
3000
1800
1C00
0E00
0600
0300
0300
0300
C600
7C00
ENDCHAR
STARTCHAR scircumflex
ENCODING 349
SWIDTH 489 0
DWIDTH 9 0
BBX 8 13 1 0
BITMAP
18
2C
00
1E
23
60
70
38
1C
0E
06
C4
78
ENDCHAR
STARTCHAR Scedilla
ENCODING 350
SWIDTH 553 0
DWIDTH 10 0
BBX 9 16 1 -3
BITMAP
1F00
3980
3000
3000
1800
1C00
0E00
0600
0300
0300
0300
C600
7C00
0C00
0600
1C00
ENDCHAR
STARTCHAR scedilla
ENCODING 351
SWIDTH 489 0
DWIDTH 9 0
BBX 8 13 1 -3
BITMAP
1E
23
60
70
38
1C
0E
06
C4
78
18
0C
38
ENDCHAR
STARTCHAR Scaron
ENCODING 352
SWIDTH 553 0
DWIDTH 10 0
BBX 9 16 1 0
BITMAP
0B00
0600
0000
1F00
3980
3000
3000
1800
1C00
0E00
0600
0300
0300
0300
C600
7C00
ENDCHAR
STARTCHAR scaron
ENCODING 353
SWIDTH 489 0
DWIDTH 9 0
BBX 8 13 1 0
BITMAP
16
0C
00
1E
23
60
70
38
1C
0E
06
C4
78
ENDCHAR
STARTCHAR Tcommaaccent
ENCODING 354
SWIDTH 623 0
DWIDTH 12 0
BBX 12 16 1 -3
BITMAP
FFF0
0600
0600
0600
0C00
0C00
0C00
0C00
0C00
1800
1800
1800
1800
0C00
0600
1C00
ENDCHAR
STARTCHAR tcommaaccent
ENCODING 355
SWIDTH 383 0
DWIDTH 7 0
BBX 6 15 1 -3
BITMAP
10
30
7C
30
60
60
60
60
C0
C0
C0
70
60
30
E0
ENDCHAR
STARTCHAR Tcaron
ENCODING 356
SWIDTH 623 0
DWIDTH 12 0
BBX 12 16 1 0
BITMAP
0B00
0600
0000
FFF0
0600
0600
0600
0C00
0C00
0C00
0C00
0C00
1800
1800
1800
1800
ENDCHAR
STARTCHAR tcaron
ENCODING 357
SWIDTH 581 0
DWIDTH 11 0
BBX 11 14 1 0
BITMAP
0060
0060
1040
3080
7C00
3000
6000
6000
6000
6000
C000
C000
C000
7000
ENDCHAR
STARTCHAR Tbar
ENCODING 358
SWIDTH 623 0
DWIDTH 12 0
BBX 12 13 1 0
BITMAP
FFF0
0600
0600
0600
0C00
0C00
0F00
0C00
0C00
1800
1800
1800
1800
ENDCHAR
STARTCHAR tbar
ENCODING 359
SWIDTH 383 0
DWIDTH 7 0
BBX 6 12 1 0
BITMAP
10
30
7C
30
60
60
78
60
C0
C0
C0
70
ENDCHAR
STARTCHAR Utilde
ENCODING 360
SWIDTH 693 0
DWIDTH 13 0
BBX 12 16 1 0
BITMAP
0680
0B00
0000
3030
3030
3030
3030
6020
6060
6060
6060
C040
C0C0
C080
6180
3E00
ENDCHAR
STARTCHAR utilde
ENCODING 361
SWIDTH 620 0
DWIDTH 11 0
BBX 10 13 1 0
BITMAP
0D00
1600
0000
30C0
30C0
30C0
6180
6180
6380
C580
CB00
FB00
7300
ENDCHAR
STARTCHAR Umacron
ENCODING 362
SWIDTH 693 0
DWIDTH 13 0
BBX 12 15 1 0
BITMAP
0780
0000
3030
3030
3030
3030
6020
6060
6060
6060
C040
C0C0
C080
6180
3E00
ENDCHAR
STARTCHAR umacron
ENCODING 363
SWIDTH 620 0
DWIDTH 11 0
BBX 10 12 1 0
BITMAP
0F00
0000
30C0
30C0
30C0
6180
6180
6380
C580
CB00
FB00
7300
ENDCHAR
STARTCHAR Ubreve
ENCODING 364
SWIDTH 693 0
DWIDTH 13 0
BBX 12 16 1 0
BITMAP
0880
0700
0000
3030
3030
3030
3030
6020
6060
6060
6060
C040
C0C0
C080
6180
3E00
ENDCHAR
STARTCHAR ubreve
ENCODING 365
SWIDTH 620 0
DWIDTH 11 0
BBX 10 13 1 0
BITMAP
1100
0E00
0000
30C0
30C0
30C0
6180
6180
6380
C580
CB00
FB00
7300
ENDCHAR
STARTCHAR Uring
ENCODING 366
SWIDTH 693 0
DWIDTH 13 0
BBX 12 17 1 0
BITMAP
0700
0980
0700
0000
3030
3030
3030
3030
6020
6060
6060
6060
C040
C0C0
C080
6180
3E00
ENDCHAR
STARTCHAR uring
ENCODING 367
SWIDTH 620 0
DWIDTH 11 0
BBX 10 14 1 0
BITMAP
0E00
1300
0E00
0000
30C0
30C0
30C0
6180
6180
6380
C580
CB00
FB00
7300
ENDCHAR
STARTCHAR Uhungarumlaut
ENCODING 368
SWIDTH 693 0
DWIDTH 13 0
BBX 12 16 1 0
BITMAP
06C0
0480
0000
3030
3030
3030
3030
6020
6060
6060
6060
C040
C0C0
C080
6180
3E00
ENDCHAR
STARTCHAR uhungarumlaut
ENCODING 369
SWIDTH 620 0
DWIDTH 11 0
BBX 10 13 1 0
BITMAP
0D80
0900
0000
30C0
30C0
30C0
6180
6180
6380
C580
CB00
FB00
7300
ENDCHAR
STARTCHAR Uogonek
ENCODING 370
SWIDTH 693 0
DWIDTH 13 0
BBX 12 16 1 -3
BITMAP
3030
3030
3030
3030
6020
6060
6060
6060
C040
C0C0
C080
6180
3E00
0C00
1800
0E00
ENDCHAR
STARTCHAR uogonek
ENCODING 371
SWIDTH 620 0
DWIDTH 11 0
BBX 10 13 1 -3
BITMAP
30C0
30C0
30C0
6180
6180
6380
C580
CB00
FB00
7300
1800
3000
1C00
ENDCHAR
STARTCHAR Wcircumflex
ENCODING 372
SWIDTH 886 0
DWIDTH 16 0
BBX 15 16 2 0
BITMAP
0300
0580
0000
C186
C186
C38C
C38C
C598
CD98
C9B0
D1A0
F1E0
E1C0
C180
C180
8100
ENDCHAR
STARTCHAR wcircumflex
ENCODING 373
SWIDTH 795 0
DWIDTH 15 0
BBX 13 13 2 0
BITMAP
0600
0B00
0000
C018
C618
C630
CE30
CE60
D640
D6C0
E680
E700
C600
ENDCHAR
STARTCHAR Ycircumflex
ENCODING 374
SWIDTH 608 0
DWIDTH 11 0
BBX 11 16 2 0
BITMAP
0C00
1600
0000
C060
C060
60C0
6180
3300
3600
1C00
1800
1800
3000
3000
3000
3000
ENDCHAR
STARTCHAR ycircumflex
ENCODING 375
SWIDTH 548 0
DWIDTH 10 0
BBX 10 16 0 -3
BITMAP
0C00
1600
0000
30C0
30C0
30C0
3080
3180
3100
3200
3400
3800
3000
6000
C000
C000
ENDCHAR
STARTCHAR Ydieresis
ENCODING 376
SWIDTH 608 0
DWIDTH 11 0
BBX 11 16 2 0
BITMAP
0900
0900
0000
C060
C060
60C0
6180
3300
3600
1C00
1800
1800
3000
3000
3000
3000
ENDCHAR
STARTCHAR Zacute
ENCODING 377
SWIDTH 578 0
DWIDTH 11 0
BBX 11 16 1 0
BITMAP
01C0
0300
0000
3FE0
0060
00E0
01C0
0380
0700
0E00
1C00
3800
7000
E000
C000
FF80
ENDCHAR
STARTCHAR zacute
ENCODING 378
SWIDTH 536 0
DWIDTH 10 0
BBX 9 13 1 0
BITMAP
0700
0C00
0000
7F80
0380
0700
0E00
1C00
1800
3800
7000
E000
FF00
ENDCHAR
STARTCHAR Zdotaccent
ENCODING 379
SWIDTH 578 0
DWIDTH 11 0
BBX 11 16 1 0
BITMAP
0300
0300
0000
3FE0
0060
00E0
01C0
0380
0700
0E00
1C00
3800
7000
E000
C000
FF80
ENDCHAR
STARTCHAR zdotaccent
ENCODING 380
SWIDTH 536 0
DWIDTH 10 0
BBX 9 13 1 0
BITMAP
0C00
0C00
0000
7F80
0380
0700
0E00
1C00
1800
3800
7000
E000
FF00
ENDCHAR
STARTCHAR Zcaron
ENCODING 381
SWIDTH 578 0
DWIDTH 11 0
BBX 11 16 1 0
BITMAP
0580
0300
0000
3FE0
0060
00E0
01C0
0380
0700
0E00
1C00
3800
7000
E000
C000
FF80
ENDCHAR
STARTCHAR zcaron
ENCODING 382
SWIDTH 536 0
DWIDTH 10 0
BBX 9 13 1 0
BITMAP
1600
0C00
0000
7F80
0380
0700
0E00
1C00
1800
3800
7000
E000
FF00
ENDCHAR
STARTCHAR uni0186
ENCODING 390
SWIDTH 679 0
DWIDTH 12 0
BBX 12 13 1 0
BITMAP
1F80
20E0
0060
0030
0030
0030
0030
0030
0060
0060
00C0
C180
7E00
ENDCHAR
STARTCHAR uni0189
ENCODING 393
SWIDTH 743 0
DWIDTH 14 0
BBX 13 13 1 0
BITMAP
1FC0
1870
1830
1818
3018
3018
FE18
3018
3030
6030
6060
60C0
7F00
ENDCHAR
STARTCHAR uni018E
ENCODING 398
SWIDTH 547 0
DWIDTH 10 0
BBX 9 13 2 0
BITMAP
3F80
0180
0180
0180
0300
0300
3F00
0300
0300
0600
0600
0600
FE00
ENDCHAR
STARTCHAR florin
ENCODING 402
SWIDTH 633 0
DWIDTH 12 0
BBX 10 15 3 -2
BITMAP
0780
0CC0
1800
1800
3000
3000
FE00
3000
6000
6000
6000
6000
C000
C000
C000
ENDCHAR
STARTCHAR uni0197
ENCODING 407
SWIDTH 289 0
DWIDTH 6 0
BBX 4 13 1 0
BITMAP
30
30
30
30
60
60
F0
60
60
C0
C0
C0
C0
ENDCHAR
STARTCHAR uni019A
ENCODING 410
SWIDTH 289 0
DWIDTH 6 0
BBX 5 14 1 0
BITMAP
18
18
18
18
30
30
78
60
60
60
60
C0
C0
C0
ENDCHAR
STARTCHAR uni019D
ENCODING 413
SWIDTH 741 0
DWIDTH 14 0
BBX 16 16 -3 -3
BITMAP
01C1
01C1
0161
0161
0163
0332
0232
021A
021A
061C
0C0C
0C0C
0C0C
0C00
1800
F000
ENDCHAR
STARTCHAR uni019F
ENCODING 415
SWIDTH 777 0
DWIDTH 14 0
BBX 13 13 1 0
BITMAP
07C0
1870
3030
6018
6018
C018
FFF8
C018
C030
C030
6060
70C0
1F00
ENDCHAR
STARTCHAR Ohorn
ENCODING 416
SWIDTH 777 0
DWIDTH 14 0
BBX 15 13 1 0
BITMAP
07C6
1876
3034
6018
6018
C018
C018
C018
C030
C030
6060
70C0
1F00
ENDCHAR
STARTCHAR ohorn
ENCODING 417
SWIDTH 566 0
DWIDTH 11 0
BBX 11 10 1 0
BITMAP
0F60
33E0
61C0
6180
C180
C180
C300
C300
E600
7800
ENDCHAR
STARTCHAR Uhorn
ENCODING 431
SWIDTH 693 0
DWIDTH 13 0
BBX 14 13 1 0
BITMAP
303C
303C
3038
3030
6020
6060
6060
6060
C040
C0C0
C080
6180
3E00
ENDCHAR
STARTCHAR uhorn
ENCODING 432
SWIDTH 620 0
DWIDTH 11 0
BBX 12 10 1 0
BITMAP
30F0
30F0
30E0
61C0
6180
6380
C580
CB00
FB00
7300
ENDCHAR
STARTCHAR uni01B5
ENCODING 437
SWIDTH 578 0
DWIDTH 11 0
BBX 11 13 1 0
BITMAP
3FE0
0060
00E0
01C0
0380
0700
0F00
1C00
3800
7000
E000
C000
FF80
ENDCHAR
STARTCHAR uni01B6
ENCODING 438
SWIDTH 536 0
DWIDTH 10 0
BBX 9 10 1 0
BITMAP
7F80
0380
0700
0E00
1E00
1800
3800
7000
E000
FF00
ENDCHAR
STARTCHAR uni01BB
ENCODING 443
SWIDTH 633 0
DWIDTH 12 0
BBX 10 13 2 0
BITMAP
1F80
31C0
00C0
00C0
00C0
0180
FFC0
0E00
1800
3000
6000
FF80
FF80
ENDCHAR
STARTCHAR uni01BC
ENCODING 444
SWIDTH 633 0
DWIDTH 12 0
BBX 10 13 2 0
BITMAP
1FC0
1FC0
1000
2000
2000
3C00
0600
0300
0300
0300
0300
C600
7C00
ENDCHAR
STARTCHAR uni01C0
ENCODING 448
SWIDTH 233 0
DWIDTH 5 0
BBX 4 16 1 -2
BITMAP
30
30
30
30
30
60
60
60
60
60
60
C0
C0
C0
C0
C0
ENDCHAR
STARTCHAR uni01C2
ENCODING 450
SWIDTH 633 0
DWIDTH 12 0
BBX 10 16 1 -2
BITMAP
0600
0600
0600
0600
0600
0C00
7FC0
0C00
0C00
0C00
FF80
1800
1800
1800
1800
1800
ENDCHAR
STARTCHAR uni01C3
ENCODING 451
SWIDTH 193 0
DWIDTH 4 0
BBX 4 13 1 0
BITMAP
30
30
30
30
60
60
60
40
40
00
00
C0
C0
ENDCHAR
STARTCHAR uni01CD
ENCODING 461
SWIDTH 687 0
DWIDTH 12 0
BBX 10 16 1 0
BITMAP
0B00
0600
0000
0300
0300
0500
0D80
0980
1980
1180
3180
3FC0
60C0
60C0
C0C0
C0C0
ENDCHAR
STARTCHAR uni01CE
ENCODING 462
SWIDTH 608 0
DWIDTH 11 0
BBX 10 13 1 0
BITMAP
0B00
0600
0000
0FC0
31C0
60C0
6180
C180
C380
C580
CB00
FB00
7300
ENDCHAR
STARTCHAR uni01CF
ENCODING 463
SWIDTH 289 0
DWIDTH 6 0
BBX 5 16 1 0
BITMAP
58
30
00
30
30
30
30
60
60
60
60
60
C0
C0
C0
C0
ENDCHAR
STARTCHAR uni01D0
ENCODING 464
SWIDTH 289 0
DWIDTH 6 0
BBX 5 13 1 0
BITMAP
58
30
00
30
30
30
60
60
60
60
C0
C0
C0
ENDCHAR
STARTCHAR uni01D1
ENCODING 465
SWIDTH 777 0
DWIDTH 14 0
BBX 13 16 1 0
BITMAP
0580
0300
0000
07C0
1870
3030
6018
6018
C018
C018
C018
C030
C030
6060
70C0
1F00
ENDCHAR
STARTCHAR uni01D2
ENCODING 466
SWIDTH 566 0
DWIDTH 11 0
BBX 9 13 1 0
BITMAP
1600
0C00
0000
0F00
3380
6180
6180
C180
C180
C300
C300
E600
7800
ENDCHAR
STARTCHAR uni01D3
ENCODING 467
SWIDTH 693 0
DWIDTH 13 0
BBX 12 16 1 0
BITMAP
0580
0300
0000
3030
3030
3030
3030
6020
6060
6060
6060
C040
C0C0
C080
6180
3E00
ENDCHAR
STARTCHAR uni01D4
ENCODING 468
SWIDTH 620 0
DWIDTH 11 0
BBX 10 13 1 0
BITMAP
0B00
0600
0000
30C0
30C0
30C0
6180
6180
6380
C580
CB00
FB00
7300
ENDCHAR
STARTCHAR uni01D5
ENCODING 469
SWIDTH 693 0
DWIDTH 13 0
BBX 12 18 1 0
BITMAP
0780
0000
0480
0480
0000
3030
3030
3030
3030
6020
6060
6060
6060
C040
C0C0
C080
6180
3E00
ENDCHAR
STARTCHAR uni01D6
ENCODING 470
SWIDTH 620 0
DWIDTH 11 0
BBX 10 15 1 0
BITMAP
0F00
0000
0900
0900
0000
30C0
30C0
30C0
6180
6180
6380
C580
CB00
FB00
7300
ENDCHAR
STARTCHAR uni01D7
ENCODING 471
SWIDTH 693 0
DWIDTH 13 0
BBX 12 19 1 0
BITMAP
0380
0600
0000
0480
0480
0000
3030
3030
3030
3030
6020
6060
6060
6060
C040
C0C0
C080
6180
3E00
ENDCHAR
STARTCHAR uni01D8
ENCODING 472
SWIDTH 620 0
DWIDTH 11 0
BBX 10 16 1 0
BITMAP
0700
0C00
0000
0900
0900
0000
30C0
30C0
30C0
6180
6180
6380
C580
CB00
FB00
7300
ENDCHAR
STARTCHAR uni01D9
ENCODING 473
SWIDTH 693 0
DWIDTH 13 0
BBX 12 19 1 0
BITMAP
0580
0300
0000
0480
0480
0000
3030
3030
3030
3030
6020
6060
6060
6060
C040
C0C0
C080
6180
3E00
ENDCHAR
STARTCHAR uni01DA
ENCODING 474
SWIDTH 620 0
DWIDTH 11 0
BBX 10 16 1 0
BITMAP
0B00
0600
0000
0900
0900
0000
30C0
30C0
30C0
6180
6180
6380
C580
CB00
FB00
7300
ENDCHAR
STARTCHAR uni01DB
ENCODING 475
SWIDTH 693 0
DWIDTH 13 0
BBX 12 19 1 0
BITMAP
0E00
0300
0000
0480
0480
0000
3030
3030
3030
3030
6020
6060
6060
6060
C040
C0C0
C080
6180
3E00
ENDCHAR
STARTCHAR uni01DC
ENCODING 476
SWIDTH 620 0
DWIDTH 11 0
BBX 10 16 1 0
BITMAP
1C00
0600
0000
0900
0900
0000
30C0
30C0
30C0
6180
6180
6380
C580
CB00
FB00
7300
ENDCHAR
STARTCHAR uni01DD
ENCODING 477
SWIDTH 529 0
DWIDTH 10 0
BBX 8 10 1 0
BITMAP
3E
47
03
03
1F
63
C6
C6
CC
70
ENDCHAR
STARTCHAR uni01DE
ENCODING 478
SWIDTH 687 0
DWIDTH 12 0
BBX 10 18 1 0
BITMAP
0F00
0000
0480
0480
0000
0300
0300
0500
0D80
0980
1980
1180
3180
3FC0
60C0
60C0
C0C0
C0C0
ENDCHAR
STARTCHAR uni01DF
ENCODING 479
SWIDTH 608 0
DWIDTH 11 0
BBX 10 15 1 0
BITMAP
0F00
0000
0480
0480
0000
0FC0
31C0
60C0
6180
C180
C380
C580
CB00
FB00
7300
ENDCHAR
STARTCHAR uni01E0
ENCODING 480
SWIDTH 687 0
DWIDTH 12 0
BBX 10 18 1 0
BITMAP
0F00
0000
0600
0600
0000
0300
0300
0500
0D80
0980
1980
1180
3180
3FC0
60C0
60C0
C0C0
C0C0
ENDCHAR
STARTCHAR uni01E1
ENCODING 481
SWIDTH 608 0
DWIDTH 11 0
BBX 10 15 1 0
BITMAP
0F00
0000
0600
0600
0000
0FC0
31C0
60C0
6180
C180
C380
C580
CB00
FB00
7300
ENDCHAR
STARTCHAR uni01E2
ENCODING 482
SWIDTH 893 0
DWIDTH 17 0
BBX 17 15 1 0
BITMAP
007800
000000
003F80
007000
00B000
013000
036000
066000
0C7E00
186000
1FE000
30C000
60C000
C0C000
C0FE00
ENDCHAR
STARTCHAR uni01E3
ENCODING 483
SWIDTH 893 0
DWIDTH 17 0
BBX 15 12 1 0
BITMAP
03C0
0000
0F9C
31E6
60C6
61C6
C18C
C3F0
C580
C980
F9C4
70F8
ENDCHAR
STARTCHAR uni01E4
ENCODING 484
SWIDTH 702 0
DWIDTH 13 0
BBX 12 13 1 0
BITMAP
07E0
1830
3000
6000
6000
C000
C000
C060
C0F0
C060
60C0
70C0
1FC0
ENDCHAR
STARTCHAR uni01E5
ENCODING 485
SWIDTH 608 0
DWIDTH 11 0
BBX 11 13 0 -3
BITMAP
07E0
18E0
3060
30C0
60C0
61C0
62C0
6580
7D80
FFE0
0100
C300
7C00
ENDCHAR
STARTCHAR Gcaron
ENCODING 486
SWIDTH 702 0
DWIDTH 13 0
BBX 12 16 1 0
BITMAP
0B00
0600
0000
07E0
1830
3000
6000
6000
C000
C000
C060
C060
C060
60C0
70C0
1FC0
ENDCHAR
STARTCHAR gcaron
ENCODING 487
SWIDTH 608 0
DWIDTH 11 0
BBX 11 16 0 -3
BITMAP
0580
0300
0000
07E0
18E0
3060
30C0
60C0
61C0
62C0
6580
7D80
3980
0100
C300
7C00
ENDCHAR
STARTCHAR uni01E8
ENCODING 488
SWIDTH 635 0
DWIDTH 12 0
BBX 10 16 2 0
BITMAP
1600
0C00
0000
30C0
30C0
3180
3300
6600
6C00
7800
6C00
6600
C600
C300
C180
C180
ENDCHAR
STARTCHAR uni01E9
ENCODING 489
SWIDTH 572 0
DWIDTH 10 0
BBX 9 17 1 0
BITMAP
2C00
1800
0000
1800
1800
1800
1800
3180
3180
3300
6400
7800
7800
6C00
CE00
C700
C380
ENDCHAR
STARTCHAR uni01EA
ENCODING 490
SWIDTH 777 0
DWIDTH 14 0
BBX 13 16 1 -3
BITMAP
07C0
1870
3030
6018
6018
C018
C018
C018
C030
C030
6060
70C0
1F00
0600
0C00
0700
ENDCHAR
STARTCHAR uni01EB
ENCODING 491
SWIDTH 566 0
DWIDTH 11 0
BBX 9 13 1 -3
BITMAP
0F00
3380
6180
6180
C180
C180
C300
C300
E600
7800
1800
3000
1C00
ENDCHAR
STARTCHAR uni01EC
ENCODING 492
SWIDTH 777 0
DWIDTH 14 0
BBX 13 18 1 -3
BITMAP
0780
0000
07C0
1870
3030
6018
6018
C018
C018
C018
C030
C030
6060
70C0
1F00
0600
0C00
0700
ENDCHAR
STARTCHAR uni01ED
ENCODING 493
SWIDTH 566 0
DWIDTH 11 0
BBX 9 15 1 -3
BITMAP
1E00
0000
0F00
3380
6180
6180
C180
C180
C300
C300
E600
7800
1800
3000
1C00
ENDCHAR
STARTCHAR uni01F0
ENCODING 496
SWIDTH 325 0
DWIDTH 6 0
BBX 10 16 -3 -3
BITMAP
0B00
0600
0000
0300
0300
0300
0600
0600
0600
0600
0C00
0C00
0C00
0C00
1800
F000
ENDCHAR
STARTCHAR uni01F4
ENCODING 500
SWIDTH 702 0
DWIDTH 13 0
BBX 12 16 1 0
BITMAP
0380
0600
0000
07E0
1830
3000
6000
6000
C000
C000
C060
C060
C060
60C0
70C0
1FC0
ENDCHAR
STARTCHAR uni01F5
ENCODING 501
SWIDTH 608 0
DWIDTH 11 0
BBX 11 16 0 -3
BITMAP
0380
0600
0000
07E0
18E0
3060
30C0
60C0
61C0
62C0
6580
7D80
3980
0100
C300
7C00
ENDCHAR
STARTCHAR uni01F8
ENCODING 504
SWIDTH 741 0
DWIDTH 14 0
BBX 11 16 2 0
BITMAP
1C00
0600
0000
3820
3820
2C20
2C20
2C60
6640
4640
4340
4340
C380
8180
8180
8180
ENDCHAR
STARTCHAR uni01F9
ENCODING 505
SWIDTH 620 0
DWIDTH 12 0
BBX 10 13 1 0
BITMAP
1C00
0600
0000
3380
37C0
34C0
68C0
7180
6180
6180
C300
C300
C300
ENDCHAR
STARTCHAR Aringacute
ENCODING 506
SWIDTH 687 0
DWIDTH 12 0
BBX 10 19 1 0
BITMAP
0380
0600
0000
0700
0980
0700
0300
0300
0500
0D80
0980
1980
1180
3180
3FC0
60C0
60C0
C0C0
C0C0
ENDCHAR
STARTCHAR aringacute
ENCODING 507
SWIDTH 608 0
DWIDTH 11 0
BBX 10 16 1 0
BITMAP
0380
0600
0000
0700
0980
0700
0FC0
31C0
60C0
6180
C180
C380
C580
CB00
FB00
7300
ENDCHAR
STARTCHAR AEacute
ENCODING 508
SWIDTH 893 0
DWIDTH 17 0
BBX 17 16 1 0
BITMAP
003800
006000
000000
003F80
007000
00B000
013000
036000
066000
0C7E00
186000
1FE000
30C000
60C000
C0C000
C0FE00
ENDCHAR
STARTCHAR aeacute
ENCODING 509
SWIDTH 893 0
DWIDTH 17 0
BBX 15 13 1 0
BITMAP
00E0
0180
0000
0F9C
31E6
60C6
61C6
C18C
C3F0
C580
C980
F9C4
70F8
ENDCHAR
STARTCHAR Oslashacute
ENCODING 510
SWIDTH 777 0
DWIDTH 14 0
BBX 13 18 1 -1
BITMAP
01C0
0300
0000
0008
07D8
1870
3070
60D8
6198
C318
C218
C618
CC30
D830
7060
70C0
DF00
8000
ENDCHAR
STARTCHAR oslashacute
ENCODING 511
SWIDTH 566 0
DWIDTH 11 0
BBX 11 15 0 -1
BITMAP
0380
0600
0000
0020
07A0
19C0
31C0
32C0
64C0
64C0
6980
7180
7300
BC00
8000
ENDCHAR
STARTCHAR Scommaaccent
ENCODING 536
SWIDTH 553 0
DWIDTH 10 0
BBX 9 18 1 -5
BITMAP
1F00
3980
3000
3000
1800
1C00
0E00
0600
0300
0300
0300
C600
7C00
0000
0C00
0C00
0800
1000
ENDCHAR
STARTCHAR scommaaccent
ENCODING 537
SWIDTH 489 0
DWIDTH 9 0
BBX 8 15 1 -5
BITMAP
1E
23
60
70
38
1C
0E
06
C4
78
00
18
18
10
20
ENDCHAR
STARTCHAR Tcommaaccent
ENCODING 538
SWIDTH 623 0
DWIDTH 12 0
BBX 12 18 1 -5
BITMAP
FFF0
0600
0600
0600
0C00
0C00
0C00
0C00
0C00
1800
1800
1800
1800
0000
0C00
0C00
0800
1000
ENDCHAR
STARTCHAR tcommaaccent
ENCODING 539
SWIDTH 383 0
DWIDTH 7 0
BBX 6 17 1 -5
BITMAP
10
30
7C
30
60
60
60
60
C0
C0
C0
70
00
60
60
40
80
ENDCHAR
STARTCHAR uni021E
ENCODING 542
SWIDTH 735 0
DWIDTH 14 0
BBX 12 16 2 0
BITMAP
0580
0300
0000
3030
3030
3030
3030
6060
6060
7FE0
6060
6060
C0C0
C0C0
C0C0
C0C0
ENDCHAR
STARTCHAR uni021F
ENCODING 543
SWIDTH 620 0
DWIDTH 12 0
BBX 10 17 1 0
BITMAP
2C00
1800
0000
1800
1800
1800
1800
3380
37C0
34C0
68C0
7180
6180
6180
C300
C300
C300
ENDCHAR
STARTCHAR uni0226
ENCODING 550
SWIDTH 687 0
DWIDTH 12 0
BBX 10 16 1 0
BITMAP
0600
0600
0000
0300
0300
0500
0D80
0980
1980
1180
3180
3FC0
60C0
60C0
C0C0
C0C0
ENDCHAR
STARTCHAR uni0227
ENCODING 551
SWIDTH 608 0
DWIDTH 11 0
BBX 10 13 1 0
BITMAP
0600
0600
0000
0FC0
31C0
60C0
6180
C180
C380
C580
CB00
FB00
7300
ENDCHAR
STARTCHAR uni0228
ENCODING 552
SWIDTH 547 0
DWIDTH 10 0
BBX 9 16 2 -3
BITMAP
3F80
3000
3000
3000
6000
6000
7E00
6000
6000
C000
C000
C000
FE00
3000
1800
7000
ENDCHAR
STARTCHAR uni0229
ENCODING 553
SWIDTH 529 0
DWIDTH 10 0
BBX 8 13 1 -3
BITMAP
0E
33
63
63
C6
F8
C0
C0
E2
7C
30
18
70
ENDCHAR
STARTCHAR uni022A
ENCODING 554
SWIDTH 777 0
DWIDTH 14 0
BBX 13 18 1 0
BITMAP
0780
0000
0480
0480
0000
07C0
1870
3030
6018
6018
C018
C018
C018
C030
C030
6060
70C0
1F00
ENDCHAR
STARTCHAR uni022B
ENCODING 555
SWIDTH 566 0
DWIDTH 11 0
BBX 9 15 1 0
BITMAP
0F00
0000
0900
0900
0000
0F00
3380
6180
6180
C180
C180
C300
C300
E600
7800
ENDCHAR
STARTCHAR uni022C
ENCODING 556
SWIDTH 777 0
DWIDTH 14 0
BBX 13 18 1 0
BITMAP
0780
0000
0340
0580
0000
07C0
1870
3030
6018
6018
C018
C018
C018
C030
C030
6060
70C0
1F00
ENDCHAR
STARTCHAR uni022D
ENCODING 557
SWIDTH 566 0
DWIDTH 11 0
BBX 9 15 1 0
BITMAP
1E00
0000
0D00
1600
0000
0F00
3380
6180
6180
C180
C180
C300
C300
E600
7800
ENDCHAR
STARTCHAR uni022E
ENCODING 558
SWIDTH 777 0
DWIDTH 14 0
BBX 13 16 1 0
BITMAP
0300
0300
0000
07C0
1870
3030
6018
6018
C018
C018
C018
C030
C030
6060
70C0
1F00
ENDCHAR
STARTCHAR uni022F
ENCODING 559
SWIDTH 566 0
DWIDTH 11 0
BBX 9 13 1 0
BITMAP
0C00
0C00
0000
0F00
3380
6180
6180
C180
C180
C300
C300
E600
7800
ENDCHAR
STARTCHAR uni0230
ENCODING 560
SWIDTH 777 0
DWIDTH 14 0
BBX 13 18 1 0
BITMAP
0780
0000
0300
0300
0000
07C0
1870
3030
6018
6018
C018
C018
C018
C030
C030
6060
70C0
1F00
ENDCHAR
STARTCHAR uni0231
ENCODING 561
SWIDTH 566 0
DWIDTH 11 0
BBX 9 15 1 0
BITMAP
1E00
0000
0C00
0C00
0000
0F00
3380
6180
6180
C180
C180
C300
C300
E600
7800
ENDCHAR
STARTCHAR uni0232
ENCODING 562
SWIDTH 608 0
DWIDTH 11 0
BBX 11 15 2 0
BITMAP
1E00
0000
C060
C060
60C0
6180
3300
3600
1C00
1800
1800
3000
3000
3000
3000
ENDCHAR
STARTCHAR uni0233
ENCODING 563
SWIDTH 548 0
DWIDTH 10 0
BBX 10 15 0 -3
BITMAP
0F00
0000
30C0
30C0
30C0
3080
3180
3100
3200
3400
3800
3000
6000
C000
C000
ENDCHAR
STARTCHAR uni0250
ENCODING 592
SWIDTH 608 0
DWIDTH 11 0
BBX 10 10 1 0
BITMAP
3380
37C0
34C0
68C0
70C0
60C0
6180
C180
E300
FC00
ENDCHAR
STARTCHAR uni0259
ENCODING 601
SWIDTH 529 0
DWIDTH 10 0
BBX 8 10 1 0
BITMAP
3E
47
03
03
1F
63
C6
C6
CC
70
ENDCHAR
STARTCHAR uni025F
ENCODING 607
SWIDTH 383 0
DWIDTH 7 0
BBX 9 17 0 -7
BITMAP
0180
0180
0180
0300
0300
0300
0600
0600
0600
0600
0C00
0C00
7E00
1800
1800
1000
E000
ENDCHAR
STARTCHAR uni0265
ENCODING 613
SWIDTH 620 0
DWIDTH 12 0
BBX 10 14 1 -4
BITMAP
30C0
30C0
30C0
6180
6180
6380
C580
CB00
FB00
7300
0600
0600
0600
0600
ENDCHAR
STARTCHAR uni0275
ENCODING 629
SWIDTH 566 0
DWIDTH 11 0
BBX 9 10 1 0
BITMAP
0F00
3380
6180
6180
FF80
C180
C300
C300
E600
7800
ENDCHAR
STARTCHAR uni0279
ENCODING 633
SWIDTH 478 0
DWIDTH 9 0
BBX 8 10 1 0
BITMAP
03
03
03
06
06
0E
16
2C
EC
CC
ENDCHAR
STARTCHAR uni0287
ENCODING 647
SWIDTH 383 0
DWIDTH 7 0
BBX 6 12 1 0
BITMAP
38
0C
0C
0C
18
18
18
18
30
F8
30
20
ENDCHAR
STARTCHAR uni0289
ENCODING 649
SWIDTH 620 0
DWIDTH 11 0
BBX 10 10 1 0
BITMAP
30C0
30C0
30C0
6180
FFC0
6380
C580
CB00
FB00
7300
ENDCHAR
STARTCHAR uni028C
ENCODING 652
SWIDTH 545 0
DWIDTH 10 0
BBX 8 10 2 0
BITMAP
03
07
0B
13
23
63
43
C3
C3
C3
ENDCHAR
STARTCHAR uni028D
ENCODING 653
SWIDTH 795 0
DWIDTH 15 0
BBX 13 10 2 0
BITMAP
0318
0738
0B38
1B58
1358
3398
6398
6318
C318
C018
ENDCHAR
STARTCHAR uni028E
ENCODING 654
SWIDTH 548 0
DWIDTH 10 0
BBX 10 13 0 0
BITMAP
00C0
00C0
0180
0300
0700
0B00
1300
2300
6300
4300
C300
C300
C300
ENDCHAR
STARTCHAR uni029E
ENCODING 670
SWIDTH 572 0
DWIDTH 10 0
BBX 9 14 1 -4
BITMAP
E180
7180
3980
1B00
0F00
0F00
1300
6600
C600
C600
0C00
0C00
0C00
0C00
ENDCHAR
STARTCHAR uni02BB
ENCODING 699
SWIDTH 217 0
DWIDTH 4 0
BBX 3 4 2 10
BITMAP
20
40
C0
C0
ENDCHAR
STARTCHAR afii57929
ENCODING 700
SWIDTH 217 0
DWIDTH 4 0
BBX 3 4 2 10
BITMAP
60
60
40
80
ENDCHAR
STARTCHAR afii64937
ENCODING 701
SWIDTH 217 0
DWIDTH 4 0
BBX 3 4 2 10
BITMAP
C0
C0
40
20
ENDCHAR
STARTCHAR circumflex
ENCODING 710
SWIDTH 566 0
DWIDTH 11 0
BBX 4 2 5 11
BITMAP
60
B0
ENDCHAR
STARTCHAR caron
ENCODING 711
SWIDTH 568 0
DWIDTH 11 0
BBX 4 2 5 11
BITMAP
B0
60
ENDCHAR
STARTCHAR uni02C8
ENCODING 712
SWIDTH 217 0
DWIDTH 4 0
BBX 2 4 2 10
BITMAP
C0
C0
80
80
ENDCHAR
STARTCHAR macron
ENCODING 713
SWIDTH 566 0
DWIDTH 11 0
BBX 4 1 5 11
BITMAP
F0
ENDCHAR
STARTCHAR uni02CA
ENCODING 714
SWIDTH 566 0
DWIDTH 11 0
BBX 4 2 5 11
BITMAP
70
C0
ENDCHAR
STARTCHAR uni02CB
ENCODING 715
SWIDTH 572 0
DWIDTH 11 0
BBX 4 2 5 11
BITMAP
E0
30
ENDCHAR
STARTCHAR uni02CD
ENCODING 717
SWIDTH 566 0
DWIDTH 11 0
BBX 4 1 5 -2
BITMAP
F0
ENDCHAR
STARTCHAR uni02CE
ENCODING 718
SWIDTH 572 0
DWIDTH 11 0
BBX 4 2 5 -3
BITMAP
E0
30
ENDCHAR
STARTCHAR uni02CF
ENCODING 719
SWIDTH 566 0
DWIDTH 11 0
BBX 4 2 5 -3
BITMAP
70
C0
ENDCHAR
STARTCHAR breve
ENCODING 728
SWIDTH 566 0
DWIDTH 11 0
BBX 5 2 4 11
BITMAP
88
70
ENDCHAR
STARTCHAR dotaccent
ENCODING 729
SWIDTH 566 0
DWIDTH 11 0
BBX 2 2 6 11
BITMAP
C0
C0
ENDCHAR
STARTCHAR ring
ENCODING 730
SWIDTH 567 0
DWIDTH 11 0
BBX 5 3 5 10
BITMAP
70
98
70
ENDCHAR
STARTCHAR ogonek
ENCODING 731
SWIDTH 566 0
DWIDTH 11 0
BBX 4 3 3 -3
BITMAP
60
C0
70
ENDCHAR
STARTCHAR tilde
ENCODING 732
SWIDTH 566 0
DWIDTH 11 0
BBX 5 2 5 11
BITMAP
68
B0
ENDCHAR
STARTCHAR hungarumlaut
ENCODING 733
SWIDTH 566 0
DWIDTH 11 0
BBX 5 2 5 11
BITMAP
D8
90
ENDCHAR
STARTCHAR uni02EE
ENCODING 750
SWIDTH 361 0
DWIDTH 7 0
BBX 6 4 2 10
BITMAP
6C
6C
48
90
ENDCHAR
STARTCHAR uni037E
ENCODING 894
SWIDTH 316 0
DWIDTH 4 0
BBX 5 12 -1 -2
BITMAP
18
18
00
00
00
00
00
00
60
60
40
80
ENDCHAR
STARTCHAR tonos
ENCODING 900
SWIDTH 566 0
DWIDTH 11 0
BBX 4 2 5 11
BITMAP
70
C0
ENDCHAR
STARTCHAR dieresistonos
ENCODING 901
SWIDTH 566 0
DWIDTH 11 0
BBX 5 5 5 11
BITMAP
38
60
00
90
90
ENDCHAR
STARTCHAR anoteleia
ENCODING 903
SWIDTH 316 0
DWIDTH 12 0
BBX 3 3 5 4
BITMAP
E0
E0
E0
ENDCHAR
STARTCHAR mu
ENCODING 956
SWIDTH 627 0
DWIDTH 11 0
BBX 11 13 0 -3
BITMAP
1860
1860
1860
30C0
30C0
31C0
62C0
6580
7D80
7980
C000
C000
C000
ENDCHAR
STARTCHAR uni1E00
ENCODING 7680
SWIDTH 687 0
DWIDTH 12 0
BBX 10 17 1 -4
BITMAP
0300
0300
0500
0D80
0980
1980
1180
3180
3FC0
60C0
60C0
C0C0
C0C0
0000
0E00
1300
0E00
ENDCHAR
STARTCHAR uni1E01
ENCODING 7681
SWIDTH 608 0
DWIDTH 11 0
BBX 10 14 1 -4
BITMAP
0FC0
31C0
60C0
6180
C180
C380
C580
CB00
FB00
7300
0000
1C00
2600
1C00
ENDCHAR
STARTCHAR uni1E02
ENCODING 7682
SWIDTH 593 0
DWIDTH 11 0
BBX 10 16 1 0
BITMAP
0600
0600
0000
3F80
31C0
30C0
30C0
6180
6300
7E00
6300
6180
C180
C180
C300
FC00
ENDCHAR
STARTCHAR uni1E03
ENCODING 7683
SWIDTH 608 0
DWIDTH 11 0
BBX 10 17 1 0
BITMAP
1800
1800
0000
1800
1800
1800
1800
3380
37C0
34C0
68C0
70C0
60C0
6180
C180
E300
FC00
ENDCHAR
STARTCHAR uni1E04
ENCODING 7684
SWIDTH 593 0
DWIDTH 11 0
BBX 10 16 1 -3
BITMAP
3F80
31C0
30C0
30C0
6180
6300
7E00
6300
6180
C180
C180
C300
FC00
0000
1800
1800
ENDCHAR
STARTCHAR uni1E05
ENCODING 7685
SWIDTH 608 0
DWIDTH 11 0
BBX 10 17 1 -3
BITMAP
1800
1800
1800
1800
3380
37C0
34C0
68C0
70C0
60C0
6180
C180
E300
FC00
0000
1800
1800
ENDCHAR
STARTCHAR uni1E06
ENCODING 7686
SWIDTH 593 0
DWIDTH 11 0
BBX 10 15 1 -2
BITMAP
3F80
31C0
30C0
30C0
6180
6300
7E00
6300
6180
C180
C180
C300
FC00
0000
3C00
ENDCHAR
STARTCHAR uni1E07
ENCODING 7687
SWIDTH 608 0
DWIDTH 11 0
BBX 10 16 1 -2
BITMAP
1800
1800
1800
1800
3380
37C0
34C0
68C0
70C0
60C0
6180
C180
E300
FC00
0000
3C00
ENDCHAR
STARTCHAR uni1E08
ENCODING 7688
SWIDTH 679 0
DWIDTH 12 0
BBX 12 19 1 -3
BITMAP
0380
0600
0000
07E0
1830
3000
6000
6000
C000
C000
C000
C000
C000
6000
7040
1F80
0C00
0600
1C00
ENDCHAR
STARTCHAR uni1E09
ENCODING 7689
SWIDTH 503 0
DWIDTH 9 0
BBX 8 16 1 -3
BITMAP
0E
18
00
0E
33
60
60
C0
C0
C0
C0
E4
78
30
18
70
ENDCHAR
STARTCHAR uni1E0A
ENCODING 7690
SWIDTH 743 0
DWIDTH 14 0
BBX 12 16 2 0
BITMAP
0600
0600
0000
3F80
30E0
3060
3030
6030
6030
6030
6030
6060
C060
C0C0
C180
FE00
ENDCHAR
STARTCHAR uni1E0B
ENCODING 7691
SWIDTH 608 0
DWIDTH 11 0
BBX 11 17 1 0
BITMAP
00C0
00C0
0000
0060
0060
0060
0060
0FC0
31C0
60C0
6180
C180
C380
C580
CB00
FB00
7300
ENDCHAR
STARTCHAR uni1E0C
ENCODING 7692
SWIDTH 743 0
DWIDTH 14 0
BBX 12 16 2 -3
BITMAP
3F80
30E0
3060
3030
6030
6030
6030
6030
6060
C060
C0C0
C180
FE00
0000
0C00
0C00
ENDCHAR
STARTCHAR uni1E0D
ENCODING 7693
SWIDTH 608 0
DWIDTH 11 0
BBX 11 17 1 -3
BITMAP
0060
0060
0060
0060
0FC0
31C0
60C0
6180
C180
C380
C580
CB00
FB00
7300
0000
0C00
0C00
ENDCHAR
STARTCHAR uni1E0E
ENCODING 7694
SWIDTH 743 0
DWIDTH 14 0
BBX 12 15 2 -2
BITMAP
3F80
30E0
3060
3030
6030
6030
6030
6030
6060
C060
C0C0
C180
FE00
0000
1E00
ENDCHAR
STARTCHAR uni1E0F
ENCODING 7695
SWIDTH 608 0
DWIDTH 11 0
BBX 11 16 1 -2
BITMAP
0060
0060
0060
0060
0FC0
31C0
60C0
6180
C180
C380
C580
CB00
FB00
7300
0000
1E00
ENDCHAR
STARTCHAR uni1E10
ENCODING 7696
SWIDTH 743 0
DWIDTH 14 0
BBX 12 16 2 -3
BITMAP
3F80
30E0
3060
3030
6030
6030
6030
6030
6060
C060
C0C0
C180
FE00
0C00
0600
1C00
ENDCHAR
STARTCHAR uni1E11
ENCODING 7697
SWIDTH 608 0
DWIDTH 11 0
BBX 11 17 1 -3
BITMAP
0060
0060
0060
0060
0FC0
31C0
60C0
6180
C180
C380
C580
CB00
FB00
7300
0C00
0600
1C00
ENDCHAR
STARTCHAR uni1E12
ENCODING 7698
SWIDTH 743 0
DWIDTH 14 0
BBX 12 16 2 -3
BITMAP
3F80
30E0
3060
3030
6030
6030
6030
6030
6060
C060
C0C0
C180
FE00
0000
0C00
1600
ENDCHAR
STARTCHAR uni1E13
ENCODING 7699
SWIDTH 608 0
DWIDTH 11 0
BBX 11 17 1 -3
BITMAP
0060
0060
0060
0060
0FC0
31C0
60C0
6180
C180
C380
C580
CB00
FB00
7300
0000
0C00
1600
ENDCHAR
STARTCHAR uni1E14
ENCODING 7700
SWIDTH 547 0
DWIDTH 10 0
BBX 9 18 2 0
BITMAP
3800
0C00
0000
3C00
0000
3F80
3000
3000
3000
6000
6000
7E00
6000
6000
C000
C000
C000
FE00
ENDCHAR
STARTCHAR uni1E15
ENCODING 7701
SWIDTH 529 0
DWIDTH 10 0
BBX 8 15 1 0
BITMAP
38
0C
00
1E
00
0E
33
63
63
C6
F8
C0
C0
E2
7C
ENDCHAR
STARTCHAR uni1E16
ENCODING 7702
SWIDTH 547 0
DWIDTH 10 0
BBX 9 18 2 0
BITMAP
0E00
1800
0000
3C00
0000
3F80
3000
3000
3000
6000
6000
7E00
6000
6000
C000
C000
C000
FE00
ENDCHAR
STARTCHAR uni1E17
ENCODING 7703
SWIDTH 529 0
DWIDTH 10 0
BBX 8 15 1 0
BITMAP
0E
18
00
1E
00
0E
33
63
63
C6
F8
C0
C0
E2
7C
ENDCHAR
STARTCHAR uni1E18
ENCODING 7704
SWIDTH 547 0
DWIDTH 10 0
BBX 9 16 2 -3
BITMAP
3F80
3000
3000
3000
6000
6000
7E00
6000
6000
C000
C000
C000
FE00
0000
3000
5800
ENDCHAR
STARTCHAR uni1E19
ENCODING 7705
SWIDTH 529 0
DWIDTH 10 0
BBX 8 13 1 -3
BITMAP
0E
33
63
63
C6
F8
C0
C0
E2
7C
00
30
58
ENDCHAR
STARTCHAR uni1E1A
ENCODING 7706
SWIDTH 547 0
DWIDTH 10 0
BBX 9 16 2 -3
BITMAP
3F80
3000
3000
3000
6000
6000
7E00
6000
6000
C000
C000
C000
FE00
0000
6800
B000
ENDCHAR
STARTCHAR uni1E1B
ENCODING 7707
SWIDTH 529 0
DWIDTH 10 0
BBX 8 13 1 -3
BITMAP
0E
33
63
63
C6
F8
C0
C0
E2
7C
00
68
B0
ENDCHAR
STARTCHAR uni1E1C
ENCODING 7708
SWIDTH 547 0
DWIDTH 10 0
BBX 9 19 2 -3
BITMAP
2200
1C00
0000
3F80
3000
3000
3000
6000
6000
7E00
6000
6000
C000
C000
C000
FE00
3000
1800
7000
ENDCHAR
STARTCHAR uni1E1D
ENCODING 7709
SWIDTH 529 0
DWIDTH 10 0
BBX 8 16 1 -3
BITMAP
22
1C
00
0E
33
63
63
C6
F8
C0
C0
E2
7C
30
18
70
ENDCHAR
STARTCHAR uni1E1E
ENCODING 7710
SWIDTH 536 0
DWIDTH 10 0
BBX 9 16 2 0
BITMAP
1800
1800
0000
3F80
3000
3000
3000
6000
6000
7E00
6000
6000
C000
C000
C000
C000
ENDCHAR
STARTCHAR uni1E1F
ENCODING 7711
SWIDTH 383 0
DWIDTH 7 0
BBX 9 20 0 -3
BITMAP
0C00
0C00
0000
0380
0400
0C00
0C00
3F00
1800
1800
3000
3000
3000
3000
6000
6000
6000
C000
C000
C000
ENDCHAR
STARTCHAR uni1E20
ENCODING 7712
SWIDTH 702 0
DWIDTH 13 0
BBX 12 15 1 0
BITMAP
0F00
0000
07E0
1830
3000
6000
6000
C000
C000
C060
C060
C060
60C0
70C0
1FC0
ENDCHAR
STARTCHAR uni1E21
ENCODING 7713
SWIDTH 608 0
DWIDTH 11 0
BBX 11 15 0 -3
BITMAP
0780
0000
07E0
18E0
3060
30C0
60C0
61C0
62C0
6580
7D80
3980
0100
C300
7C00
ENDCHAR
STARTCHAR uni1E22
ENCODING 7714
SWIDTH 735 0
DWIDTH 14 0
BBX 12 16 2 0
BITMAP
0300
0300
0000
3030
3030
3030
3030
6060
6060
7FE0
6060
6060
C0C0
C0C0
C0C0
C0C0
ENDCHAR
STARTCHAR uni1E23
ENCODING 7715
SWIDTH 620 0
DWIDTH 12 0
BBX 10 17 1 0
BITMAP
1800
1800
0000
1800
1800
1800
1800
3380
37C0
34C0
68C0
7180
6180
6180
C300
C300
C300
ENDCHAR
STARTCHAR uni1E24
ENCODING 7716
SWIDTH 735 0
DWIDTH 14 0
BBX 12 16 2 -3
BITMAP
3030
3030
3030
3030
6060
6060
7FE0
6060
6060
C0C0
C0C0
C0C0
C0C0
0000
0C00
0C00
ENDCHAR
STARTCHAR uni1E25
ENCODING 7717
SWIDTH 620 0
DWIDTH 12 0
BBX 10 17 1 -3
BITMAP
1800
1800
1800
1800
3380
37C0
34C0
68C0
7180
6180
6180
C300
C300
C300
0000
0C00
0C00
ENDCHAR
STARTCHAR uni1E26
ENCODING 7718
SWIDTH 735 0
DWIDTH 14 0
BBX 12 16 2 0
BITMAP
0480
0480
0000
3030
3030
3030
3030
6060
6060
7FE0
6060
6060
C0C0
C0C0
C0C0
C0C0
ENDCHAR
STARTCHAR uni1E27
ENCODING 7719
SWIDTH 620 0
DWIDTH 12 0
BBX 10 17 1 0
BITMAP
2400
2400
0000
1800
1800
1800
1800
3380
37C0
34C0
68C0
7180
6180
6180
C300
C300
C300
ENDCHAR
STARTCHAR uni1E28
ENCODING 7720
SWIDTH 735 0
DWIDTH 14 0
BBX 12 16 2 -3
BITMAP
3030
3030
3030
3030
6060
6060
7FE0
6060
6060
C0C0
C0C0
C0C0
C0C0
0C00
0600
1C00
ENDCHAR
STARTCHAR uni1E29
ENCODING 7721
SWIDTH 620 0
DWIDTH 12 0
BBX 10 17 1 -3
BITMAP
1800
1800
1800
1800
3380
37C0
34C0
68C0
7180
6180
6180
C300
C300
C300
0C00
0600
1C00
ENDCHAR
STARTCHAR uni1E2A
ENCODING 7722
SWIDTH 735 0
DWIDTH 14 0
BBX 12 16 2 -3
BITMAP
3030
3030
3030
3030
6060
6060
7FE0
6060
6060
C0C0
C0C0
C0C0
C0C0
0000
1100
0E00
ENDCHAR
STARTCHAR uni1E2B
ENCODING 7723
SWIDTH 620 0
DWIDTH 12 0
BBX 10 17 1 -3
BITMAP
1800
1800
1800
1800
3380
37C0
34C0
68C0
7180
6180
6180
C300
C300
C300
0000
2200
1C00
ENDCHAR
STARTCHAR uni1E2C
ENCODING 7724
SWIDTH 289 0
DWIDTH 6 0
BBX 5 16 0 -3
BITMAP
18
18
18
18
30
30
30
30
30
60
60
60
60
00
68
B0
ENDCHAR
STARTCHAR uni1E2D
ENCODING 7725
SWIDTH 289 0
DWIDTH 6 0
BBX 7 17 0 -3
BITMAP
06
0C
00
00
18
18
18
30
30
30
30
60
60
60
00
68
B0
ENDCHAR
STARTCHAR uni1E2E
ENCODING 7726
SWIDTH 289 0
DWIDTH 6 0
BBX 6 19 1 0
BITMAP
1C
30
00
48
48
00
30
30
30
30
60
60
60
60
60
C0
C0
C0
C0
ENDCHAR
STARTCHAR uni1E2F
ENCODING 7727
SWIDTH 289 0
DWIDTH 6 0
BBX 6 16 1 0
BITMAP
1C
30
00
48
48
00
30
30
30
60
60
60
60
C0
C0
C0
ENDCHAR
STARTCHAR uni1E30
ENCODING 7728
SWIDTH 635 0
DWIDTH 12 0
BBX 10 16 2 0
BITMAP
0700
0C00
0000
30C0
30C0
3180
3300
6600
6C00
7800
6C00
6600
C600
C300
C180
C180
ENDCHAR
STARTCHAR uni1E31
ENCODING 7729
SWIDTH 572 0
DWIDTH 10 0
BBX 9 17 1 0
BITMAP
0E00
1800
0000
1800
1800
1800
1800
3180
3180
3300
6400
7800
7800
6C00
CE00
C700
C380
ENDCHAR
STARTCHAR uni1E32
ENCODING 7730
SWIDTH 635 0
DWIDTH 12 0
BBX 10 16 2 -3
BITMAP
30C0
30C0
3180
3300
6600
6C00
7800
6C00
6600
C600
C300
C180
C180
0000
1800
1800
ENDCHAR
STARTCHAR uni1E33
ENCODING 7731
SWIDTH 572 0
DWIDTH 10 0
BBX 9 17 1 -3
BITMAP
1800
1800
1800
1800
3180
3180
3300
6400
7800
7800
6C00
CE00
C700
C380
0000
1800
1800
ENDCHAR
STARTCHAR uni1E34
ENCODING 7732
SWIDTH 635 0
DWIDTH 12 0
BBX 10 15 2 -2
BITMAP
30C0
30C0
3180
3300
6600
6C00
7800
6C00
6600
C600
C300
C180
C180
0000
3C00
ENDCHAR
STARTCHAR uni1E35
ENCODING 7733
SWIDTH 572 0
DWIDTH 10 0
BBX 9 16 1 -2
BITMAP
1800
1800
1800
1800
3180
3180
3300
6400
7800
7800
6C00
CE00
C700
C380
0000
3C00
ENDCHAR
STARTCHAR uni1E36
ENCODING 7734
SWIDTH 545 0
DWIDTH 10 0
BBX 8 16 2 -3
BITMAP
30
30
30
30
60
60
60
60
60
C0
C0
C0
FF
00
30
30
ENDCHAR
STARTCHAR uni1E37
ENCODING 7735
SWIDTH 289 0
DWIDTH 6 0
BBX 5 17 1 -3
BITMAP
18
18
18
18
30
30
30
60
60
60
60
C0
C0
C0
00
60
60
ENDCHAR
STARTCHAR uni1E38
ENCODING 7736
SWIDTH 545 0
DWIDTH 10 0
BBX 8 18 2 -3
BITMAP
78
00
30
30
30
30
60
60
60
60
60
C0
C0
C0
FF
00
30
30
ENDCHAR
STARTCHAR uni1E39
ENCODING 7737
SWIDTH 289 0
DWIDTH 6 0
BBX 5 19 1 -3
BITMAP
78
00
18
18
18
18
30
30
30
60
60
60
60
C0
C0
C0
00
60
60
ENDCHAR
STARTCHAR uni1E3A
ENCODING 7738
SWIDTH 545 0
DWIDTH 10 0
BBX 8 15 2 -2
BITMAP
30
30
30
30
60
60
60
60
60
C0
C0
C0
FF
00
78
ENDCHAR
STARTCHAR uni1E3B
ENCODING 7739
SWIDTH 289 0
DWIDTH 6 0
BBX 5 16 1 -2
BITMAP
18
18
18
18
30
30
30
60
60
60
60
C0
C0
C0
00
F0
ENDCHAR
STARTCHAR uni1E3C
ENCODING 7740
SWIDTH 545 0
DWIDTH 10 0
BBX 8 16 2 -3
BITMAP
30
30
30
30
60
60
60
60
60
C0
C0
C0
FF
00
30
58
ENDCHAR
STARTCHAR uni1E3D
ENCODING 7741
SWIDTH 289 0
DWIDTH 6 0
BBX 5 17 1 -3
BITMAP
18
18
18
18
30
30
30
60
60
60
60
C0
C0
C0
00
60
B0
ENDCHAR
STARTCHAR uni1E3E
ENCODING 7742
SWIDTH 828 0
DWIDTH 16 0
BBX 14 16 2 0
BITMAP
01C0
0300
0000
381C
381C
282C
2C2C
2C4C
4C98
4C98
4D18
4718
8630
8630
8030
8030
ENDCHAR
STARTCHAR uni1E3F
ENCODING 7743
SWIDTH 934 0
DWIDTH 18 0
BBX 16 13 1 0
BITMAP
00E0
0180
0000
338E
37DF
34D3
68E3
71C6
6186
6186
C30C
C30C
C30C
ENDCHAR
STARTCHAR uni1E40
ENCODING 7744
SWIDTH 828 0
DWIDTH 16 0
BBX 14 16 2 0
BITMAP
0180
0180
0000
381C
381C
282C
2C2C
2C4C
4C98
4C98
4D18
4718
8630
8630
8030
8030
ENDCHAR
STARTCHAR uni1E41
ENCODING 7745
SWIDTH 934 0
DWIDTH 18 0
BBX 16 13 1 0
BITMAP
00C0
00C0
0000
338E
37DF
34D3
68E3
71C6
6186
6186
C30C
C30C
C30C
ENDCHAR
STARTCHAR uni1E42
ENCODING 7746
SWIDTH 828 0
DWIDTH 16 0
BBX 14 16 2 -3
BITMAP
381C
381C
282C
2C2C
2C4C
4C98
4C98
4D18
4718
8630
8630
8030
8030
0000
0300
0300
ENDCHAR
STARTCHAR uni1E43
ENCODING 7747
SWIDTH 934 0
DWIDTH 18 0
BBX 16 13 1 -3
BITMAP
338E
37DF
34D3
68E3
71C6
6186
6186
C30C
C30C
C30C
0000
0300
0300
ENDCHAR
STARTCHAR uni1E44
ENCODING 7748
SWIDTH 741 0
DWIDTH 14 0
BBX 11 16 2 0
BITMAP
0600
0600
0000
3820
3820
2C20
2C20
2C60
6640
4640
4340
4340
C380
8180
8180
8180
ENDCHAR
STARTCHAR uni1E45
ENCODING 7749
SWIDTH 620 0
DWIDTH 12 0
BBX 10 13 1 0
BITMAP
0600
0600
0000
3380
37C0
34C0
68C0
7180
6180
6180
C300
C300
C300
ENDCHAR
STARTCHAR uni1E46
ENCODING 7750
SWIDTH 741 0
DWIDTH 14 0
BBX 11 16 2 -3
BITMAP
3820
3820
2C20
2C20
2C60
6640
4640
4340
4340
C380
8180
8180
8180
0000
0C00
0C00
ENDCHAR
STARTCHAR uni1E47
ENCODING 7751
SWIDTH 620 0
DWIDTH 12 0
BBX 10 13 1 -3
BITMAP
3380
37C0
34C0
68C0
7180
6180
6180
C300
C300
C300
0000
1800
1800
ENDCHAR
STARTCHAR uni1E48
ENCODING 7752
SWIDTH 741 0
DWIDTH 14 0
BBX 11 15 2 -2
BITMAP
3820
3820
2C20
2C20
2C60
6640
4640
4340
4340
C380
8180
8180
8180
0000
1E00
ENDCHAR
STARTCHAR uni1E49
ENCODING 7753
SWIDTH 620 0
DWIDTH 12 0
BBX 10 12 1 -2
BITMAP
3380
37C0
34C0
68C0
7180
6180
6180
C300
C300
C300
0000
3C00
ENDCHAR
STARTCHAR uni1E4A
ENCODING 7754
SWIDTH 741 0
DWIDTH 14 0
BBX 11 16 2 -3
BITMAP
3820
3820
2C20
2C20
2C60
6640
4640
4340
4340
C380
8180
8180
8180
0000
0C00
1600
ENDCHAR
STARTCHAR uni1E4B
ENCODING 7755
SWIDTH 620 0
DWIDTH 12 0
BBX 10 13 1 -3
BITMAP
3380
37C0
34C0
68C0
7180
6180
6180
C300
C300
C300
0000
1800
2C00
ENDCHAR
STARTCHAR uni1E4C
ENCODING 7756
SWIDTH 777 0
DWIDTH 14 0
BBX 13 19 1 0
BITMAP
01C0
0300
0000
0340
0580
0000
07C0
1870
3030
6018
6018
C018
C018
C018
C030
C030
6060
70C0
1F00
ENDCHAR
STARTCHAR uni1E4D
ENCODING 7757
SWIDTH 566 0
DWIDTH 11 0
BBX 9 16 1 0
BITMAP
0700
0C00
0000
0D00
1600
0000
0F00
3380
6180
6180
C180
C180
C300
C300
E600
7800
ENDCHAR
STARTCHAR uni1E4E
ENCODING 7758
SWIDTH 777 0
DWIDTH 14 0
BBX 13 19 1 0
BITMAP
0480
0480
0000
0340
0580
0000
07C0
1870
3030
6018
6018
C018
C018
C018
C030
C030
6060
70C0
1F00
ENDCHAR
STARTCHAR uni1E4F
ENCODING 7759
SWIDTH 566 0
DWIDTH 11 0
BBX 9 16 1 0
BITMAP
1200
1200
0000
0D00
1600
0000
0F00
3380
6180
6180
C180
C180
C300
C300
E600
7800
ENDCHAR
STARTCHAR uni1E50
ENCODING 7760
SWIDTH 777 0
DWIDTH 14 0
BBX 13 18 1 0
BITMAP
0700
0180
0000
0780
0000
07C0
1870
3030
6018
6018
C018
C018
C018
C030
C030
6060
70C0
1F00
ENDCHAR
STARTCHAR uni1E51
ENCODING 7761
SWIDTH 566 0
DWIDTH 11 0
BBX 9 15 1 0
BITMAP
1C00
0600
0000
1E00
0000
0F00
3380
6180
6180
C180
C180
C300
C300
E600
7800
ENDCHAR
STARTCHAR uni1E52
ENCODING 7762
SWIDTH 777 0
DWIDTH 14 0
BBX 13 18 1 0
BITMAP
01C0
0300
0000
0780
0000
07C0
1870
3030
6018
6018
C018
C018
C018
C030
C030
6060
70C0
1F00
ENDCHAR
STARTCHAR uni1E53
ENCODING 7763
SWIDTH 566 0
DWIDTH 11 0
BBX 9 15 1 0
BITMAP
0700
0C00
0000
1E00
0000
0F00
3380
6180
6180
C180
C180
C300
C300
E600
7800
ENDCHAR
STARTCHAR uni1E54
ENCODING 7764
SWIDTH 575 0
DWIDTH 11 0
BBX 10 16 1 0
BITMAP
0700
0C00
0000
3F80
31C0
30C0
30C0
60C0
6180
6300
7C00
6000
C000
C000
C000
C000
ENDCHAR
STARTCHAR uni1E55
ENCODING 7765
SWIDTH 608 0
DWIDTH 11 0
BBX 11 16 0 -3
BITMAP
0380
0600
0000
19C0
1BE0
1A60
3460
3860
3060
30C0
60C0
7180
7E00
C000
C000
C000
ENDCHAR
STARTCHAR uni1E56
ENCODING 7766
SWIDTH 575 0
DWIDTH 11 0
BBX 10 16 1 0
BITMAP
0600
0600
0000
3F80
31C0
30C0
30C0
60C0
6180
6300
7C00
6000
C000
C000
C000
C000
ENDCHAR
STARTCHAR uni1E57
ENCODING 7767
SWIDTH 608 0
DWIDTH 11 0
BBX 11 16 0 -3
BITMAP
0600
0600
0000
19C0
1BE0
1A60
3460
3860
3060
30C0
60C0
7180
7E00
C000
C000
C000
ENDCHAR
STARTCHAR uni1E58
ENCODING 7768
SWIDTH 632 0
DWIDTH 12 0
BBX 10 16 2 0
BITMAP
0600
0600
0000
3F80
31C0
30C0
30C0
6180
6300
7C00
6600
6600
C300
C300
C180
C1C0
ENDCHAR
STARTCHAR uni1E59
ENCODING 7769
SWIDTH 478 0
DWIDTH 9 0
BBX 8 13 1 0
BITMAP
0C
0C
00
33
37
34
68
70
60
60
C0
C0
C0
ENDCHAR
STARTCHAR uni1E5A
ENCODING 7770
SWIDTH 632 0
DWIDTH 12 0
BBX 10 16 2 -3
BITMAP
3F80
31C0
30C0
30C0
6180
6300
7C00
6600
6600
C300
C300
C180
C1C0
0000
0C00
0C00
ENDCHAR
STARTCHAR uni1E5B
ENCODING 7771
SWIDTH 478 0
DWIDTH 9 0
BBX 8 13 1 -3
BITMAP
33
37
34
68
70
60
60
C0
C0
C0
00
60
60
ENDCHAR
STARTCHAR uni1E5C
ENCODING 7772
SWIDTH 632 0
DWIDTH 12 0
BBX 10 18 2 -3
BITMAP
0F00
0000
3F80
31C0
30C0
30C0
6180
6300
7C00
6600
6600
C300
C300
C180
C1C0
0000
0C00
0C00
ENDCHAR
STARTCHAR uni1E5D
ENCODING 7773
SWIDTH 478 0
DWIDTH 9 0
BBX 8 15 1 -3
BITMAP
3C
00
33
37
34
68
70
60
60
C0
C0
C0
00
60
60
ENDCHAR
STARTCHAR uni1E5E
ENCODING 7774
SWIDTH 632 0
DWIDTH 12 0
BBX 10 15 2 -2
BITMAP
3F80
31C0
30C0
30C0
6180
6300
7C00
6600
6600
C300
C300
C180
C1C0
0000
1E00
ENDCHAR
STARTCHAR uni1E5F
ENCODING 7775
SWIDTH 478 0
DWIDTH 9 0
BBX 8 12 1 -2
BITMAP
33
37
34
68
70
60
60
C0
C0
C0
00
F0
ENDCHAR
STARTCHAR uni1E60
ENCODING 7776
SWIDTH 553 0
DWIDTH 10 0
BBX 9 16 1 0
BITMAP
0C00
0C00
0000
1F00
3980
3000
3000
1800
1C00
0E00
0600
0300
0300
0300
C600
7C00
ENDCHAR
STARTCHAR uni1E61
ENCODING 7777
SWIDTH 489 0
DWIDTH 9 0
BBX 8 13 1 0
BITMAP
18
18
00
1E
23
60
70
38
1C
0E
06
C4
78
ENDCHAR
STARTCHAR uni1E62
ENCODING 7778
SWIDTH 553 0
DWIDTH 10 0
BBX 9 16 1 -3
BITMAP
1F00
3980
3000
3000
1800
1C00
0E00
0600
0300
0300
0300
C600
7C00
0000
0C00
0C00
ENDCHAR
STARTCHAR uni1E63
ENCODING 7779
SWIDTH 489 0
DWIDTH 9 0
BBX 8 13 1 -3
BITMAP
1E
23
60
70
38
1C
0E
06
C4
78
00
18
18
ENDCHAR
STARTCHAR uni1E64
ENCODING 7780
SWIDTH 553 0
DWIDTH 10 0
BBX 9 19 1 0
BITMAP
0C00
0C00
0000
0E00
1800
0000
1F00
3980
3000
3000
1800
1C00
0E00
0600
0300
0300
0300
C600
7C00
ENDCHAR
STARTCHAR uni1E65
ENCODING 7781
SWIDTH 489 0
DWIDTH 9 0
BBX 8 16 1 0
BITMAP
0C
0C
00
0E
18
00
1E
23
60
70
38
1C
0E
06
C4
78
ENDCHAR
STARTCHAR uni1E66
ENCODING 7782
SWIDTH 553 0
DWIDTH 10 0
BBX 9 19 1 0
BITMAP
0C00
0C00
0000
0B00
0600
0000
1F00
3980
3000
3000
1800
1C00
0E00
0600
0300
0300
0300
C600
7C00
ENDCHAR
STARTCHAR uni1E67
ENCODING 7783
SWIDTH 489 0
DWIDTH 9 0
BBX 8 16 1 0
BITMAP
0C
0C
00
16
0C
00
1E
23
60
70
38
1C
0E
06
C4
78
ENDCHAR
STARTCHAR uni1E68
ENCODING 7784
SWIDTH 553 0
DWIDTH 10 0
BBX 9 19 1 -3
BITMAP
0C00
0C00
0000
1F00
3980
3000
3000
1800
1C00
0E00
0600
0300
0300
0300
C600
7C00
0000
0C00
0C00
ENDCHAR
STARTCHAR uni1E69
ENCODING 7785
SWIDTH 489 0
DWIDTH 9 0
BBX 8 16 1 -3
BITMAP
18
18
00
1E
23
60
70
38
1C
0E
06
C4
78
00
18
18
ENDCHAR
STARTCHAR uni1E6A
ENCODING 7786
SWIDTH 623 0
DWIDTH 12 0
BBX 12 16 1 0
BITMAP
0600
0600
0000
FFF0
0600
0600
0600
0C00
0C00
0C00
0C00
0C00
1800
1800
1800
1800
ENDCHAR
STARTCHAR uni1E6B
ENCODING 7787
SWIDTH 383 0
DWIDTH 7 0
BBX 6 15 1 0
BITMAP
30
30
00
10
30
7C
30
60
60
60
60
C0
C0
C0
70
ENDCHAR
STARTCHAR uni1E6C
ENCODING 7788
SWIDTH 623 0
DWIDTH 12 0
BBX 12 16 1 -3
BITMAP
FFF0
0600
0600
0600
0C00
0C00
0C00
0C00
0C00
1800
1800
1800
1800
0000
0C00
0C00
ENDCHAR
STARTCHAR uni1E6D
ENCODING 7789
SWIDTH 383 0
DWIDTH 7 0
BBX 6 15 1 -3
BITMAP
10
30
7C
30
60
60
60
60
C0
C0
C0
70
00
60
60
ENDCHAR
STARTCHAR uni1E6E
ENCODING 7790
SWIDTH 623 0
DWIDTH 12 0
BBX 12 15 1 -2
BITMAP
FFF0
0600
0600
0600
0C00
0C00
0C00
0C00
0C00
1800
1800
1800
1800
0000
1E00
ENDCHAR
STARTCHAR uni1E6F
ENCODING 7791
SWIDTH 383 0
DWIDTH 7 0
BBX 6 14 1 -2
BITMAP
10
30
7C
30
60
60
60
60
C0
C0
C0
70
00
F0
ENDCHAR
STARTCHAR uni1E70
ENCODING 7792
SWIDTH 623 0
DWIDTH 12 0
BBX 12 16 1 -3
BITMAP
FFF0
0600
0600
0600
0C00
0C00
0C00
0C00
0C00
1800
1800
1800
1800
0000
0C00
1600
ENDCHAR
STARTCHAR uni1E71
ENCODING 7793
SWIDTH 383 0
DWIDTH 7 0
BBX 6 15 1 -3
BITMAP
10
30
7C
30
60
60
60
60
C0
C0
C0
70
00
60
B0
ENDCHAR
STARTCHAR uni1E72
ENCODING 7794
SWIDTH 693 0
DWIDTH 13 0
BBX 12 16 1 -3
BITMAP
3030
3030
3030
3030
6020
6060
6060
6060
C040
C0C0
C080
6180
3E00
0000
1200
1200
ENDCHAR
STARTCHAR uni1E73
ENCODING 7795
SWIDTH 620 0
DWIDTH 11 0
BBX 10 13 1 -3
BITMAP
30C0
30C0
30C0
6180
6180
6380
C580
CB00
FB00
7300
0000
2400
2400
ENDCHAR
STARTCHAR uni1E74
ENCODING 7796
SWIDTH 693 0
DWIDTH 13 0
BBX 12 16 1 -3
BITMAP
3030
3030
3030
3030
6020
6060
6060
6060
C040
C0C0
C080
6180
3E00
0000
1A00
2C00
ENDCHAR
STARTCHAR uni1E75
ENCODING 7797
SWIDTH 620 0
DWIDTH 11 0
BBX 10 13 1 -3
BITMAP
30C0
30C0
30C0
6180
6180
6380
C580
CB00
FB00
7300
0000
1A00
2C00
ENDCHAR
STARTCHAR uni1E76
ENCODING 7798
SWIDTH 693 0
DWIDTH 13 0
BBX 12 16 1 -3
BITMAP
3030
3030
3030
3030
6020
6060
6060
6060
C040
C0C0
C080
6180
3E00
0000
0C00
1600
ENDCHAR
STARTCHAR uni1E77
ENCODING 7799
SWIDTH 620 0
DWIDTH 11 0
BBX 10 13 1 -3
BITMAP
30C0
30C0
30C0
6180
6180
6380
C580
CB00
FB00
7300
0000
1800
2C00
ENDCHAR
STARTCHAR uni1E78
ENCODING 7800
SWIDTH 693 0
DWIDTH 13 0
BBX 12 19 1 0
BITMAP
0380
0600
0000
0680
0B00
0000
3030
3030
3030
3030
6020
6060
6060
6060
C040
C0C0
C080
6180
3E00
ENDCHAR
STARTCHAR uni1E79
ENCODING 7801
SWIDTH 620 0
DWIDTH 11 0
BBX 10 16 1 0
BITMAP
0700
0C00
0000
0D00
1600
0000
30C0
30C0
30C0
6180
6180
6380
C580
CB00
FB00
7300
ENDCHAR
STARTCHAR uni1E7A
ENCODING 7802
SWIDTH 693 0
DWIDTH 13 0
BBX 12 18 1 0
BITMAP
0480
0480
0000
0780
0000
3030
3030
3030
3030
6020
6060
6060
6060
C040
C0C0
C080
6180
3E00
ENDCHAR
STARTCHAR uni1E7B
ENCODING 7803
SWIDTH 620 0
DWIDTH 11 0
BBX 10 15 1 0
BITMAP
0900
0900
0000
0F00
0000
30C0
30C0
30C0
6180
6180
6380
C580
CB00
FB00
7300
ENDCHAR
STARTCHAR uni1E7C
ENCODING 7804
SWIDTH 687 0
DWIDTH 12 0
BBX 10 16 3 0
BITMAP
0D00
1600
0000
C0C0
C0C0
C180
C180
C300
C300
C600
C600
CC00
4800
7800
7000
6000
ENDCHAR
STARTCHAR uni1E7D
ENCODING 7805
SWIDTH 545 0
DWIDTH 10 0
BBX 8 13 2 0
BITMAP
1A
2C
00
C3
C3
C3
C2
C6
C4
C8
D0
E0
C0
ENDCHAR
STARTCHAR uni1E7E
ENCODING 7806
SWIDTH 687 0
DWIDTH 12 0
BBX 10 16 3 -3
BITMAP
C0C0
C0C0
C180
C180
C300
C300
C600
C600
CC00
4800
7800
7000
6000
0000
3000
3000
ENDCHAR
STARTCHAR uni1E7F
ENCODING 7807
SWIDTH 545 0
DWIDTH 10 0
BBX 8 13 2 -3
BITMAP
C3
C3
C3
C2
C6
C4
C8
D0
E0
C0
00
60
60
ENDCHAR
STARTCHAR Wgrave
ENCODING 7808
SWIDTH 886 0
DWIDTH 16 0
BBX 15 16 2 0
BITMAP
0700
0180
0000
C186
C186
C38C
C38C
C598
CD98
C9B0
D1A0
F1E0
E1C0
C180
C180
8100
ENDCHAR
STARTCHAR wgrave
ENCODING 7809
SWIDTH 795 0
DWIDTH 15 0
BBX 13 13 2 0
BITMAP
0E00
0300
0000
C018
C618
C630
CE30
CE60
D640
D6C0
E680
E700
C600
ENDCHAR
STARTCHAR Wacute
ENCODING 7810
SWIDTH 886 0
DWIDTH 16 0
BBX 15 16 2 0
BITMAP
01C0
0300
0000
C186
C186
C38C
C38C
C598
CD98
C9B0
D1A0
F1E0
E1C0
C180
C180
8100
ENDCHAR
STARTCHAR wacute
ENCODING 7811
SWIDTH 795 0
DWIDTH 15 0
BBX 13 13 2 0
BITMAP
0380
0600
0000
C018
C618
C630
CE30
CE60
D640
D6C0
E680
E700
C600
ENDCHAR
STARTCHAR Wdieresis
ENCODING 7812
SWIDTH 886 0
DWIDTH 16 0
BBX 15 16 2 0
BITMAP
0480
0480
0000
C186
C186
C38C
C38C
C598
CD98
C9B0
D1A0
F1E0
E1C0
C180
C180
8100
ENDCHAR
STARTCHAR wdieresis
ENCODING 7813
SWIDTH 795 0
DWIDTH 15 0
BBX 13 13 2 0
BITMAP
0900
0900
0000
C018
C618
C630
CE30
CE60
D640
D6C0
E680
E700
C600
ENDCHAR
STARTCHAR uni1E86
ENCODING 7814
SWIDTH 886 0
DWIDTH 16 0
BBX 15 16 2 0
BITMAP
0300
0300
0000
C186
C186
C38C
C38C
C598
CD98
C9B0
D1A0
F1E0
E1C0
C180
C180
8100
ENDCHAR
STARTCHAR uni1E87
ENCODING 7815
SWIDTH 795 0
DWIDTH 15 0
BBX 13 13 2 0
BITMAP
0600
0600
0000
C018
C618
C630
CE30
CE60
D640
D6C0
E680
E700
C600
ENDCHAR
STARTCHAR uni1E88
ENCODING 7816
SWIDTH 886 0
DWIDTH 16 0
BBX 15 16 2 -3
BITMAP
C186
C186
C38C
C38C
C598
CD98
C9B0
D1A0
F1E0
E1C0
C180
C180
8100
0000
0600
0600
ENDCHAR
STARTCHAR uni1E89
ENCODING 7817
SWIDTH 795 0
DWIDTH 15 0
BBX 13 13 2 -3
BITMAP
C018
C618
C630
CE30
CE60
D640
D6C0
E680
E700
C600
0000
0C00
0C00
ENDCHAR
STARTCHAR uni1E8A
ENCODING 7818
SWIDTH 620 0
DWIDTH 12 0
BBX 11 16 1 0
BITMAP
0600
0600
0000
3060
3060
18C0
1980
0D00
0E00
0E00
1E00
3300
6300
6180
C180
C180
ENDCHAR
STARTCHAR uni1E8B
ENCODING 7819
SWIDTH 541 0
DWIDTH 10 0
BBX 9 13 1 0
BITMAP
0C00
0C00
0000
3180
3180
1900
1A00
0C00
1800
2C00
4C00
C600
C600
ENDCHAR
STARTCHAR uni1E8C
ENCODING 7820
SWIDTH 620 0
DWIDTH 12 0
BBX 11 16 1 0
BITMAP
0900
0900
0000
3060
3060
18C0
1980
0D00
0E00
0E00
1E00
3300
6300
6180
C180
C180
ENDCHAR
STARTCHAR uni1E8D
ENCODING 7821
SWIDTH 541 0
DWIDTH 10 0
BBX 9 13 1 0
BITMAP
1200
1200
0000
3180
3180
1900
1A00
0C00
1800
2C00
4C00
C600
C600
ENDCHAR
STARTCHAR uni1E8E
ENCODING 7822
SWIDTH 608 0
DWIDTH 11 0
BBX 11 16 2 0
BITMAP
0C00
0C00
0000
C060
C060
60C0
6180
3300
3600
1C00
1800
1800
3000
3000
3000
3000
ENDCHAR
STARTCHAR uni1E8F
ENCODING 7823
SWIDTH 548 0
DWIDTH 10 0
BBX 10 16 0 -3
BITMAP
0600
0600
0000
30C0
30C0
30C0
3080
3180
3100
3200
3400
3800
3000
6000
C000
C000
ENDCHAR
STARTCHAR uni1E90
ENCODING 7824
SWIDTH 578 0
DWIDTH 11 0
BBX 11 16 1 0
BITMAP
0300
0580
0000
3FE0
0060
00E0
01C0
0380
0700
0E00
1C00
3800
7000
E000
C000
FF80
ENDCHAR
STARTCHAR uni1E91
ENCODING 7825
SWIDTH 536 0
DWIDTH 10 0
BBX 9 13 1 0
BITMAP
0C00
1600
0000
7F80
0380
0700
0E00
1C00
1800
3800
7000
E000
FF00
ENDCHAR
STARTCHAR uni1E92
ENCODING 7826
SWIDTH 578 0
DWIDTH 11 0
BBX 11 16 1 -3
BITMAP
3FE0
0060
00E0
01C0
0380
0700
0E00
1C00
3800
7000
E000
C000
FF80
0000
1800
1800
ENDCHAR
STARTCHAR uni1E93
ENCODING 7827
SWIDTH 536 0
DWIDTH 10 0
BBX 9 13 1 -3
BITMAP
7F80
0380
0700
0E00
1C00
1800
3800
7000
E000
FF00
0000
1800
1800
ENDCHAR
STARTCHAR uni1E94
ENCODING 7828
SWIDTH 578 0
DWIDTH 11 0
BBX 11 15 1 -2
BITMAP
3FE0
0060
00E0
01C0
0380
0700
0E00
1C00
3800
7000
E000
C000
FF80
0000
3C00
ENDCHAR
STARTCHAR uni1E95
ENCODING 7829
SWIDTH 536 0
DWIDTH 10 0
BBX 9 12 1 -2
BITMAP
7F80
0380
0700
0E00
1C00
1800
3800
7000
E000
FF00
0000
3C00
ENDCHAR
STARTCHAR uni1E96
ENCODING 7830
SWIDTH 620 0
DWIDTH 12 0
BBX 10 16 1 -2
BITMAP
1800
1800
1800
1800
3380
37C0
34C0
68C0
7180
6180
6180
C300
C300
C300
0000
1E00
ENDCHAR
STARTCHAR uni1E97
ENCODING 7831
SWIDTH 383 0
DWIDTH 7 0
BBX 6 15 1 0
BITMAP
48
48
00
10
30
7C
30
60
60
60
60
C0
C0
C0
70
ENDCHAR
STARTCHAR uni1E98
ENCODING 7832
SWIDTH 795 0
DWIDTH 15 0
BBX 13 14 2 0
BITMAP
0700
0980
0700
0000
C018
C618
C630
CE30
CE60
D640
D6C0
E680
E700
C600
ENDCHAR
STARTCHAR uni1E99
ENCODING 7833
SWIDTH 548 0
DWIDTH 10 0
BBX 10 17 0 -3
BITMAP
0E00
1300
0E00
0000
30C0
30C0
30C0
3080
3180
3100
3200
3400
3800
3000
6000
C000
C000
ENDCHAR
STARTCHAR uni1EA0
ENCODING 7840
SWIDTH 687 0
DWIDTH 12 0
BBX 10 16 1 -3
BITMAP
0300
0300
0500
0D80
0980
1980
1180
3180
3FC0
60C0
60C0
C0C0
C0C0
0000
0C00
0C00
ENDCHAR
STARTCHAR uni1EA1
ENCODING 7841
SWIDTH 608 0
DWIDTH 11 0
BBX 10 13 1 -3
BITMAP
0FC0
31C0
60C0
6180
C180
C380
C580
CB00
FB00
7300
0000
1800
1800
ENDCHAR
STARTCHAR uni1EA4
ENCODING 7844
SWIDTH 687 0
DWIDTH 12 0
BBX 10 19 1 0
BITMAP
0380
0600
0000
0300
0580
0000
0300
0300
0500
0D80
0980
1980
1180
3180
3FC0
60C0
60C0
C0C0
C0C0
ENDCHAR
STARTCHAR uni1EA5
ENCODING 7845
SWIDTH 608 0
DWIDTH 11 0
BBX 10 16 1 0
BITMAP
0380
0600
0000
0300
0580
0000
0FC0
31C0
60C0
6180
C180
C380
C580
CB00
FB00
7300
ENDCHAR
STARTCHAR uni1EA6
ENCODING 7846
SWIDTH 687 0
DWIDTH 12 0
BBX 10 19 1 0
BITMAP
0E00
0300
0000
0300
0580
0000
0300
0300
0500
0D80
0980
1980
1180
3180
3FC0
60C0
60C0
C0C0
C0C0
ENDCHAR
STARTCHAR uni1EA7
ENCODING 7847
SWIDTH 608 0
DWIDTH 11 0
BBX 10 16 1 0
BITMAP
0E00
0300
0000
0300
0580
0000
0FC0
31C0
60C0
6180
C180
C380
C580
CB00
FB00
7300
ENDCHAR
STARTCHAR uni1EAA
ENCODING 7850
SWIDTH 687 0
DWIDTH 12 0
BBX 10 19 1 0
BITMAP
0680
0B00
0000
0300
0580
0000
0300
0300
0500
0D80
0980
1980
1180
3180
3FC0
60C0
60C0
C0C0
C0C0
ENDCHAR
STARTCHAR uni1EAB
ENCODING 7851
SWIDTH 608 0
DWIDTH 11 0
BBX 10 16 1 0
BITMAP
0680
0B00
0000
0300
0580
0000
0FC0
31C0
60C0
6180
C180
C380
C580
CB00
FB00
7300
ENDCHAR
STARTCHAR uni1EAC
ENCODING 7852
SWIDTH 687 0
DWIDTH 12 0
BBX 10 19 1 -3
BITMAP
0600
0B00
0000
0300
0300
0500
0D80
0980
1980
1180
3180
3FC0
60C0
60C0
C0C0
C0C0
0000
0C00
0C00
ENDCHAR
STARTCHAR uni1EAD
ENCODING 7853
SWIDTH 608 0
DWIDTH 11 0
BBX 10 16 1 -3
BITMAP
0600
0B00
0000
0FC0
31C0
60C0
6180
C180
C380
C580
CB00
FB00
7300
0000
1800
1800
ENDCHAR
STARTCHAR uni1EAE
ENCODING 7854
SWIDTH 687 0
DWIDTH 12 0
BBX 10 19 1 0
BITMAP
0380
0600
0000
0880
0700
0000
0300
0300
0500
0D80
0980
1980
1180
3180
3FC0
60C0
60C0
C0C0
C0C0
ENDCHAR
STARTCHAR uni1EAF
ENCODING 7855
SWIDTH 608 0
DWIDTH 11 0
BBX 10 16 1 0
BITMAP
0380
0600
0000
1100
0E00
0000
0FC0
31C0
60C0
6180
C180
C380
C580
CB00
FB00
7300
ENDCHAR
STARTCHAR uni1EB0
ENCODING 7856
SWIDTH 687 0
DWIDTH 12 0
BBX 10 19 1 0
BITMAP
1C00
0600
0000
0880
0700
0000
0300
0300
0500
0D80
0980
1980
1180
3180
3FC0
60C0
60C0
C0C0
C0C0
ENDCHAR
STARTCHAR uni1EB1
ENCODING 7857
SWIDTH 608 0
DWIDTH 11 0
BBX 10 16 1 0
BITMAP
1C00
0600
0000
1100
0E00
0000
0FC0
31C0
60C0
6180
C180
C380
C580
CB00
FB00
7300
ENDCHAR
STARTCHAR uni1EB4
ENCODING 7860
SWIDTH 687 0
DWIDTH 12 0
BBX 10 19 1 0
BITMAP
0680
0B00
0000
0880
0700
0000
0300
0300
0500
0D80
0980
1980
1180
3180
3FC0
60C0
60C0
C0C0
C0C0
ENDCHAR
STARTCHAR uni1EB5
ENCODING 7861
SWIDTH 608 0
DWIDTH 11 0
BBX 10 16 1 0
BITMAP
0680
0B00
0000
1100
0E00
0000
0FC0
31C0
60C0
6180
C180
C380
C580
CB00
FB00
7300
ENDCHAR
STARTCHAR uni1EB6
ENCODING 7862
SWIDTH 687 0
DWIDTH 12 0
BBX 10 19 1 -3
BITMAP
0880
0700
0000
0300
0300
0500
0D80
0980
1980
1180
3180
3FC0
60C0
60C0
C0C0
C0C0
0000
0C00
0C00
ENDCHAR
STARTCHAR uni1EB7
ENCODING 7863
SWIDTH 608 0
DWIDTH 11 0
BBX 10 16 1 -3
BITMAP
1100
0E00
0000
0FC0
31C0
60C0
6180
C180
C380
C580
CB00
FB00
7300
0000
1800
1800
ENDCHAR
STARTCHAR uni1EB8
ENCODING 7864
SWIDTH 547 0
DWIDTH 10 0
BBX 9 16 2 -3
BITMAP
3F80
3000
3000
3000
6000
6000
7E00
6000
6000
C000
C000
C000
FE00
0000
3000
3000
ENDCHAR
STARTCHAR uni1EB9
ENCODING 7865
SWIDTH 529 0
DWIDTH 10 0
BBX 8 13 1 -3
BITMAP
0E
33
63
63
C6
F8
C0
C0
E2
7C
00
30
30
ENDCHAR
STARTCHAR uni1EBC
ENCODING 7868
SWIDTH 547 0
DWIDTH 10 0
BBX 9 16 2 0
BITMAP
1A00
2C00
0000
3F80
3000
3000
3000
6000
6000
7E00
6000
6000
C000
C000
C000
FE00
ENDCHAR
STARTCHAR uni1EBD
ENCODING 7869
SWIDTH 529 0
DWIDTH 10 0
BBX 8 13 1 0
BITMAP
1A
2C
00
0E
33
63
63
C6
F8
C0
C0
E2
7C
ENDCHAR
STARTCHAR uni1EBE
ENCODING 7870
SWIDTH 547 0
DWIDTH 10 0
BBX 9 19 2 0
BITMAP
0700
0C00
0000
0600
0B00
0000
3F80
3000
3000
3000
6000
6000
7E00
6000
6000
C000
C000
C000
FE00
ENDCHAR
STARTCHAR uni1EBF
ENCODING 7871
SWIDTH 529 0
DWIDTH 10 0
BBX 8 16 1 0
BITMAP
07
0C
00
0C
16
00
0E
33
63
63
C6
F8
C0
C0
E2
7C
ENDCHAR
STARTCHAR uni1EC0
ENCODING 7872
SWIDTH 547 0
DWIDTH 10 0
BBX 9 19 2 0
BITMAP
3800
0C00
0000
0600
0B00
0000
3F80
3000
3000
3000
6000
6000
7E00
6000
6000
C000
C000
C000
FE00
ENDCHAR
STARTCHAR uni1EC1
ENCODING 7873
SWIDTH 529 0
DWIDTH 10 0
BBX 8 16 1 0
BITMAP
38
0C
00
0C
16
00
0E
33
63
63
C6
F8
C0
C0
E2
7C
ENDCHAR
STARTCHAR uni1EC4
ENCODING 7876
SWIDTH 547 0
DWIDTH 10 0
BBX 9 19 2 0
BITMAP
0D00
1600
0000
0600
0B00
0000
3F80
3000
3000
3000
6000
6000
7E00
6000
6000
C000
C000
C000
FE00
ENDCHAR
STARTCHAR uni1EC5
ENCODING 7877
SWIDTH 529 0
DWIDTH 10 0
BBX 8 16 1 0
BITMAP
0D
16
00
0C
16
00
0E
33
63
63
C6
F8
C0
C0
E2
7C
ENDCHAR
STARTCHAR uni1EC6
ENCODING 7878
SWIDTH 547 0
DWIDTH 10 0
BBX 9 19 2 -3
BITMAP
1800
2C00
0000
3F80
3000
3000
3000
6000
6000
7E00
6000
6000
C000
C000
C000
FE00
0000
3000
3000
ENDCHAR
STARTCHAR uni1EC7
ENCODING 7879
SWIDTH 529 0
DWIDTH 10 0
BBX 8 16 1 -3
BITMAP
18
2C
00
0E
33
63
63
C6
F8
C0
C0
E2
7C
00
30
30
ENDCHAR
STARTCHAR uni1ECA
ENCODING 7882
SWIDTH 289 0
DWIDTH 6 0
BBX 4 16 1 -3
BITMAP
30
30
30
30
60
60
60
60
60
C0
C0
C0
C0
00
C0
C0
ENDCHAR
STARTCHAR uni1ECB
ENCODING 7883
SWIDTH 289 0
DWIDTH 6 0
BBX 6 17 1 -3
BITMAP
0C
18
00
00
30
30
30
60
60
60
60
C0
C0
C0
00
60
60
ENDCHAR
STARTCHAR uni1ECC
ENCODING 7884
SWIDTH 777 0
DWIDTH 14 0
BBX 13 16 1 -3
BITMAP
07C0
1870
3030
6018
6018
C018
C018
C018
C030
C030
6060
70C0
1F00
0000
0600
0600
ENDCHAR
STARTCHAR uni1ECD
ENCODING 7885
SWIDTH 566 0
DWIDTH 11 0
BBX 9 13 1 -3
BITMAP
0F00
3380
6180
6180
C180
C180
C300
C300
E600
7800
0000
1800
1800
ENDCHAR
STARTCHAR uni1ED0
ENCODING 7888
SWIDTH 777 0
DWIDTH 14 0
BBX 13 19 1 0
BITMAP
01C0
0300
0000
0180
02C0
0000
07C0
1870
3030
6018
6018
C018
C018
C018
C030
C030
6060
70C0
1F00
ENDCHAR
STARTCHAR uni1ED1
ENCODING 7889
SWIDTH 566 0
DWIDTH 11 0
BBX 9 16 1 0
BITMAP
0700
0C00
0000
0600
0B00
0000
0F00
3380
6180
6180
C180
C180
C300
C300
E600
7800
ENDCHAR
STARTCHAR uni1ED2
ENCODING 7890
SWIDTH 777 0
DWIDTH 14 0
BBX 13 19 1 0
BITMAP
0700
0180
0000
0180
02C0
0000
07C0
1870
3030
6018
6018
C018
C018
C018
C030
C030
6060
70C0
1F00
ENDCHAR
STARTCHAR uni1ED3
ENCODING 7891
SWIDTH 566 0
DWIDTH 11 0
BBX 9 16 1 0
BITMAP
1C00
0600
0000
0600
0B00
0000
0F00
3380
6180
6180
C180
C180
C300
C300
E600
7800
ENDCHAR
STARTCHAR uni1ED6
ENCODING 7894
SWIDTH 777 0
DWIDTH 14 0
BBX 13 19 1 0
BITMAP
0340
0580
0000
0180
02C0
0000
07C0
1870
3030
6018
6018
C018
C018
C018
C030
C030
6060
70C0
1F00
ENDCHAR
STARTCHAR uni1ED7
ENCODING 7895
SWIDTH 566 0
DWIDTH 11 0
BBX 9 16 1 0
BITMAP
0D00
1600
0000
0600
0B00
0000
0F00
3380
6180
6180
C180
C180
C300
C300
E600
7800
ENDCHAR
STARTCHAR uni1ED8
ENCODING 7896
SWIDTH 777 0
DWIDTH 14 0
BBX 13 19 1 -3
BITMAP
0300
0580
0000
07C0
1870
3030
6018
6018
C018
C018
C018
C030
C030
6060
70C0
1F00
0000
0600
0600
ENDCHAR
STARTCHAR uni1ED9
ENCODING 7897
SWIDTH 566 0
DWIDTH 11 0
BBX 9 16 1 -3
BITMAP
0C00
1600
0000
0F00
3380
6180
6180
C180
C180
C300
C300
E600
7800
0000
1800
1800
ENDCHAR
STARTCHAR uni1EDA
ENCODING 7898
SWIDTH 777 0
DWIDTH 14 0
BBX 15 16 1 0
BITMAP
00E0
0180
0000
07C6
1876
3034
6018
6018
C018
C018
C018
C030
C030
6060
70C0
1F00
ENDCHAR
STARTCHAR uni1EDB
ENCODING 7899
SWIDTH 566 0
DWIDTH 11 0
BBX 11 13 1 0
BITMAP
0380
0600
0000
0F60
33E0
61C0
6180
C180
C180
C300
C300
E600
7800
ENDCHAR
STARTCHAR uni1EDC
ENCODING 7900
SWIDTH 777 0
DWIDTH 14 0
BBX 15 16 1 0
BITMAP
0380
00C0
0000
07C6
1876
3034
6018
6018
C018
C018
C018
C030
C030
6060
70C0
1F00
ENDCHAR
STARTCHAR uni1EDD
ENCODING 7901
SWIDTH 566 0
DWIDTH 11 0
BBX 11 13 1 0
BITMAP
0E00
0300
0000
0F60
33E0
61C0
6180
C180
C180
C300
C300
E600
7800
ENDCHAR
STARTCHAR uni1EE0
ENCODING 7904
SWIDTH 777 0
DWIDTH 14 0
BBX 15 16 1 0
BITMAP
01A0
02C0
0000
07C6
1876
3034
6018
6018
C018
C018
C018
C030
C030
6060
70C0
1F00
ENDCHAR
STARTCHAR uni1EE1
ENCODING 7905
SWIDTH 566 0
DWIDTH 11 0
BBX 11 13 1 0
BITMAP
0680
0B00
0000
0F60
33E0
61C0
6180
C180
C180
C300
C300
E600
7800
ENDCHAR
STARTCHAR uni1EE2
ENCODING 7906
SWIDTH 777 0
DWIDTH 14 0
BBX 15 16 1 -3
BITMAP
07C6
1876
3034
6018
6018
C018
C018
C018
C030
C030
6060
70C0
1F00
0000
0600
0600
ENDCHAR
STARTCHAR uni1EE3
ENCODING 7907
SWIDTH 566 0
DWIDTH 11 0
BBX 11 13 1 -3
BITMAP
0F60
33E0
61C0
6180
C180
C180
C300
C300
E600
7800
0000
1800
1800
ENDCHAR
STARTCHAR uni1EE4
ENCODING 7908
SWIDTH 693 0
DWIDTH 13 0
BBX 12 16 1 -3
BITMAP
3030
3030
3030
3030
6020
6060
6060
6060
C040
C0C0
C080
6180
3E00
0000
0C00
0C00
ENDCHAR
STARTCHAR uni1EE5
ENCODING 7909
SWIDTH 620 0
DWIDTH 11 0
BBX 10 13 1 -3
BITMAP
30C0
30C0
30C0
6180
6180
6380
C580
CB00
FB00
7300
0000
1800
1800
ENDCHAR
STARTCHAR uni1EE8
ENCODING 7912
SWIDTH 693 0
DWIDTH 13 0
BBX 14 16 1 0
BITMAP
00E0
0180
0000
303C
303C
3038
3030
6020
6060
6060
6060
C040
C0C0
C080
6180
3E00
ENDCHAR
STARTCHAR uni1EE9
ENCODING 7913
SWIDTH 620 0
DWIDTH 11 0
BBX 12 13 1 0
BITMAP
01C0
0300
0000
30F0
30F0
30E0
61C0
6180
6380
C580
CB00
FB00
7300
ENDCHAR
STARTCHAR uni1EEA
ENCODING 7914
SWIDTH 693 0
DWIDTH 13 0
BBX 14 16 1 0
BITMAP
0700
0180
0000
303C
303C
3038
3030
6020
6060
6060
6060
C040
C0C0
C080
6180
3E00
ENDCHAR
STARTCHAR uni1EEB
ENCODING 7915
SWIDTH 620 0
DWIDTH 11 0
BBX 12 13 1 0
BITMAP
0E00
0300
0000
30F0
30F0
30E0
61C0
6180
6380
C580
CB00
FB00
7300
ENDCHAR
STARTCHAR uni1EEE
ENCODING 7918
SWIDTH 693 0
DWIDTH 13 0
BBX 14 16 1 0
BITMAP
01A0
02C0
0000
303C
303C
3038
3030
6020
6060
6060
6060
C040
C0C0
C080
6180
3E00
ENDCHAR
STARTCHAR uni1EEF
ENCODING 7919
SWIDTH 620 0
DWIDTH 11 0
BBX 12 13 1 0
BITMAP
0340
0580
0000
30F0
30F0
30E0
61C0
6180
6380
C580
CB00
FB00
7300
ENDCHAR
STARTCHAR uni1EF0
ENCODING 7920
SWIDTH 693 0
DWIDTH 13 0
BBX 14 16 1 -3
BITMAP
303C
303C
3038
3030
6020
6060
6060
6060
C040
C0C0
C080
6180
3E00
0000
0C00
0C00
ENDCHAR
STARTCHAR uni1EF1
ENCODING 7921
SWIDTH 620 0
DWIDTH 11 0
BBX 12 13 1 -3
BITMAP
30F0
30F0
30E0
61C0
6180
6380
C580
CB00
FB00
7300
0000
0C00
0C00
ENDCHAR
STARTCHAR Ygrave
ENCODING 7922
SWIDTH 608 0
DWIDTH 11 0
BBX 11 16 2 0
BITMAP
1C00
0600
0000
C060
C060
60C0
6180
3300
3600
1C00
1800
1800
3000
3000
3000
3000
ENDCHAR
STARTCHAR ygrave
ENCODING 7923
SWIDTH 548 0
DWIDTH 10 0
BBX 10 16 0 -3
BITMAP
1C00
0600
0000
30C0
30C0
30C0
3080
3180
3100
3200
3400
3800
3000
6000
C000
C000
ENDCHAR
STARTCHAR uni1EF4
ENCODING 7924
SWIDTH 608 0
DWIDTH 11 0
BBX 11 16 2 -3
BITMAP
C060
C060
60C0
6180
3300
3600
1C00
1800
1800
3000
3000
3000
3000
0000
1800
1800
ENDCHAR
STARTCHAR uni1EF5
ENCODING 7925
SWIDTH 548 0
DWIDTH 10 0
BBX 10 16 0 -6
BITMAP
30C0
30C0
30C0
3080
3180
3100
3200
3400
3800
3000
6000
C000
C000
0000
3000
3000
ENDCHAR
STARTCHAR uni1EF8
ENCODING 7928
SWIDTH 608 0
DWIDTH 11 0
BBX 11 16 2 0
BITMAP
0D00
1600
0000
C060
C060
60C0
6180
3300
3600
1C00
1800
1800
3000
3000
3000
3000
ENDCHAR
STARTCHAR uni1EF9
ENCODING 7929
SWIDTH 548 0
DWIDTH 10 0
BBX 10 16 0 -3
BITMAP
0D00
1600
0000
30C0
30C0
30C0
3080
3180
3100
3200
3400
3800
3000
6000
C000
C000
ENDCHAR
STARTCHAR uni2000
ENCODING 8192
SWIDTH 500 0
DWIDTH 9 0
BBX 1 1 0 0
BITMAP
00
ENDCHAR
STARTCHAR uni2001
ENCODING 8193
SWIDTH 1000 0
DWIDTH 19 0
BBX 1 1 0 0
BITMAP
00
ENDCHAR
STARTCHAR uni2002
ENCODING 8194
SWIDTH 500 0
DWIDTH 9 0
BBX 1 1 0 0
BITMAP
00
ENDCHAR
STARTCHAR uni2003
ENCODING 8195
SWIDTH 1000 0
DWIDTH 19 0
BBX 1 1 0 0
BITMAP
00
ENDCHAR
STARTCHAR uni2004
ENCODING 8196
SWIDTH 333 0
DWIDTH 6 0
BBX 1 1 0 0
BITMAP
00
ENDCHAR
STARTCHAR uni2005
ENCODING 8197
SWIDTH 250 0
DWIDTH 5 0
BBX 1 1 0 0
BITMAP
00
ENDCHAR
STARTCHAR uni2006
ENCODING 8198
SWIDTH 167 0
DWIDTH 3 0
BBX 1 1 0 0
BITMAP
00
ENDCHAR
STARTCHAR uni2007
ENCODING 8199
SWIDTH 633 0
DWIDTH 12 0
BBX 1 1 0 0
BITMAP
00
ENDCHAR
STARTCHAR uni2008
ENCODING 8200
SWIDTH 316 0
DWIDTH 4 0
BBX 1 1 0 0
BITMAP
00
ENDCHAR
STARTCHAR uni2009
ENCODING 8201
SWIDTH 200 0
DWIDTH 4 0
BBX 1 1 0 0
BITMAP
00
ENDCHAR
STARTCHAR uni200A
ENCODING 8202
SWIDTH 100 0
DWIDTH 2 0
BBX 1 1 0 0
BITMAP
00
ENDCHAR
STARTCHAR uni200B
ENCODING 8203
SWIDTH 0 0
DWIDTH 0 0
BBX 1 1 0 0
BITMAP
00
ENDCHAR
STARTCHAR uni2010
ENCODING 8208
SWIDTH 313 0
DWIDTH 6 0
BBX 5 1 1 5
BITMAP
F8
ENDCHAR
STARTCHAR uni2011
ENCODING 8209
SWIDTH 313 0
DWIDTH 6 0
BBX 5 1 1 5
BITMAP
F8
ENDCHAR
STARTCHAR figuredash
ENCODING 8210
SWIDTH 500 0
DWIDTH 10 0
BBX 9 1 1 5
BITMAP
FF80
ENDCHAR
STARTCHAR endash
ENCODING 8211
SWIDTH 500 0
DWIDTH 10 0
BBX 9 1 1 5
BITMAP
FF80
ENDCHAR
STARTCHAR emdash
ENCODING 8212
SWIDTH 1000 0
DWIDTH 19 0
BBX 18 1 1 5
BITMAP
FFFFC0
ENDCHAR
STARTCHAR afii00208
ENCODING 8213
SWIDTH 1000 0
DWIDTH 19 0
BBX 18 1 1 5
BITMAP
FFFFC0
ENDCHAR
STARTCHAR quoteleft
ENCODING 8216
SWIDTH 217 0
DWIDTH 4 0
BBX 3 4 2 10
BITMAP
20
40
C0
C0
ENDCHAR
STARTCHAR quoteright
ENCODING 8217
SWIDTH 217 0
DWIDTH 4 0
BBX 3 4 2 10
BITMAP
60
60
40
80
ENDCHAR
STARTCHAR quotesinglbase
ENCODING 8218
SWIDTH 217 0
DWIDTH 4 0
BBX 3 4 1 -2
BITMAP
60
60
40
80
ENDCHAR
STARTCHAR quotereversed
ENCODING 8219
SWIDTH 217 0
DWIDTH 4 0
BBX 3 4 2 10
BITMAP
C0
C0
40
20
ENDCHAR
STARTCHAR quotedblleft
ENCODING 8220
SWIDTH 361 0
DWIDTH 7 0
BBX 6 4 2 10
BITMAP
24
48
D8
D8
ENDCHAR
STARTCHAR quotedblright
ENCODING 8221
SWIDTH 361 0
DWIDTH 7 0
BBX 6 4 2 10
BITMAP
6C
6C
48
90
ENDCHAR
STARTCHAR quotedblbase
ENCODING 8222
SWIDTH 361 0
DWIDTH 7 0
BBX 6 4 0 -2
BITMAP
6C
6C
48
90
ENDCHAR
STARTCHAR uni201F
ENCODING 8223
SWIDTH 361 0
DWIDTH 7 0
BBX 6 4 2 10
BITMAP
D8
D8
48
24
ENDCHAR
STARTCHAR dagger
ENCODING 8224
SWIDTH 633 0
DWIDTH 12 0
BBX 9 15 2 -2
BITMAP
0C00
0C00
0C00
0C00
FF80
1800
1800
1800
1800
1800
3000
3000
3000
3000
3000
ENDCHAR
STARTCHAR daggerdbl
ENCODING 8225
SWIDTH 633 0
DWIDTH 12 0
BBX 10 15 1 -2
BITMAP
0600
0600
0600
0600
7FC0
0C00
0C00
0C00
0C00
0C00
FF80
1800
1800
1800
1800
ENDCHAR
STARTCHAR bullet
ENCODING 8226
SWIDTH 633 0
DWIDTH 12 0
BBX 5 5 4 3
BITMAP
F8
F8
F8
F8
F8
ENDCHAR
STARTCHAR ellipsis
ENCODING 8230
SWIDTH 1000 0
DWIDTH 12 0
BBX 8 2 2 0
BITMAP
C3
C3
ENDCHAR
STARTCHAR perthousand
ENCODING 8240
SWIDTH 1027 0
DWIDTH 20 0
BBX 20 13 1 0
BITMAP
381800
4C3000
CC6000
CCC000
CD8000
C90000
7270E0
049930
0D9B30
199B30
319B30
619320
C0E1C0
ENDCHAR
STARTCHAR guilsinglleft
ENCODING 8249
SWIDTH 328 0
DWIDTH 6 0
BBX 5 8 0 1
BITMAP
08
10
20
40
C0
60
30
10
ENDCHAR
STARTCHAR guilsinglright
ENCODING 8250
SWIDTH 328 0
DWIDTH 6 0
BBX 5 8 1 1
BITMAP
40
60
30
18
10
20
40
80
ENDCHAR
STARTCHAR fraction
ENCODING 8260
SWIDTH 117 0
DWIDTH 5 0
BBX 9 13 -1 0
BITMAP
0180
0180
0300
0700
0600
0C00
1C00
1800
3000
7000
6000
C000
C000
ENDCHAR
STARTCHAR oneinferior
ENCODING 8321
SWIDTH 392 0
DWIDTH 7 0
BBX 4 7 2 -3
BITMAP
30
F0
30
30
60
60
60
ENDCHAR
STARTCHAR twoinferior
ENCODING 8322
SWIDTH 392 0
DWIDTH 7 0
BBX 7 7 1 -3
BITMAP
3C
66
06
0C
30
60
FC
ENDCHAR
STARTCHAR threeinferior
ENCODING 8323
SWIDTH 392 0
DWIDTH 7 0
BBX 7 7 1 -3
BITMAP
3C
66
06
38
0C
CC
78
ENDCHAR
STARTCHAR uni20A5
ENCODING 8357
SWIDTH 934 0
DWIDTH 18 0
BBX 16 16 1 -3
BITMAP
000C
0018
0018
33BE
37FF
34F3
68E3
71C6
6186
6186
C30C
C70C
C70C
0C00
0C00
1800
ENDCHAR
STARTCHAR uni20A6
ENCODING 8358
SWIDTH 741 0
DWIDTH 14 0
BBX 11 13 2 0
BITMAP
3820
3820
2C20
2C20
3FE0
6640
4640
4340
7FC0
C380
8180
8180
8180
ENDCHAR
STARTCHAR uni20A9
ENCODING 8361
SWIDTH 886 0
DWIDTH 16 0
BBX 15 13 2 0
BITMAP
C186
C186
C38C
C38C
CFF8
CD98
C9B0
D1A0
FFF0
E1C0
C180
C180
8100
ENDCHAR
STARTCHAR Euro
ENCODING 8364
SWIDTH 679 0
DWIDTH 12 0
BBX 15 13 -2 0
BITMAP
00FC
0306
0600
0C00
7FC0
1800
1800
1800
FF80
1800
0C00
0E08
03F0
ENDCHAR
STARTCHAR uni20AD
ENCODING 8365
SWIDTH 635 0
DWIDTH 12 0
BBX 10 13 2 0
BITMAP
30C0
30C0
3180
3300
6600
6C00
FFC0
6C00
6600
C600
C300
C180
C180
ENDCHAR
STARTCHAR uni2103
ENCODING 8451
SWIDTH 935 0
DWIDTH 17 0
BBX 17 13 1 0
BITMAP
603F00
90C180
918000
630000
030000
060000
060000
060000
060000
060000
030000
038200
00FC00
ENDCHAR
STARTCHAR uni2109
ENCODING 8457
SWIDTH 792 0
DWIDTH 15 0
BBX 15 13 1 0
BITMAP
60FE
90C0
90C0
60C0
0180
0180
01F8
0180
0180
0300
0300
0300
0300
ENDCHAR
STARTCHAR trademark
ENCODING 8482
SWIDTH 801 0
DWIDTH 15 0
BBX 15 6 0 7
BITMAP
FEC6
18CE
18FE
316C
316C
310C
ENDCHAR
STARTCHAR uni212A
ENCODING 8490
SWIDTH 635 0
DWIDTH 12 0
BBX 10 13 2 0
BITMAP
30C0
30C0
3180
3300
6600
6C00
7800
6C00
6600
C600
C300
C180
C180
ENDCHAR
STARTCHAR uni212B
ENCODING 8491
SWIDTH 687 0
DWIDTH 12 0
BBX 10 16 1 0
BITMAP
0700
0980
0700
0300
0300
0500
0D80
0980
1980
1180
3180
3FC0
60C0
60C0
C0C0
C0C0
ENDCHAR
STARTCHAR uni2132
ENCODING 8498
SWIDTH 536 0
DWIDTH 10 0
BBX 9 13 2 0
BITMAP
0180
0180
0180
0180
0300
0300
3F00
0300
0300
0600
0600
0600
FE00
ENDCHAR
STARTCHAR minus
ENCODING 8722
SWIDTH 633 0
DWIDTH 12 0
BBX 9 1 2 5
BITMAP
FF80
ENDCHAR
STARTCHAR fraction
ENCODING 8725
SWIDTH 117 0
DWIDTH 5 0
BBX 9 13 -1 0
BITMAP
0180
0180
0300
0700
0600
0C00
1C00
1800
3000
7000
6000
C000
C000
ENDCHAR
STARTCHAR periodcentered
ENCODING 8729
SWIDTH 316 0
DWIDTH 12 0
BBX 3 3 5 4
BITMAP
E0
E0
E0
ENDCHAR
STARTCHAR uni2236
ENCODING 8758
SWIDTH 316 0
DWIDTH 4 0
BBX 4 10 0 0
BITMAP
30
30
00
00
00
00
00
00
C0
C0
ENDCHAR
STARTCHAR uni2259
ENCODING 8793
SWIDTH 633 0
DWIDTH 12 0
BBX 10 8 1 3
BITMAP
0C00
1600
0000
7FC0
0000
0000
0000
FF80
ENDCHAR
STARTCHAR uni225A
ENCODING 8794
SWIDTH 633 0
DWIDTH 12 0
BBX 10 8 1 3
BITMAP
1600
0C00
0000
7FC0
0000
0000
0000
FF80
ENDCHAR
STARTCHAR notequal
ENCODING 8800
SWIDTH 633 0
DWIDTH 12 0
BBX 11 16 1 -2
BITMAP
0060
00C0
00C0
0180
0380
0300
7FC0
0600
0C00
0C00
FF80
3800
3000
6000
6000
C000
ENDCHAR
STARTCHAR equivalence
ENCODING 8801
SWIDTH 633 0
DWIDTH 12 0
BBX 10 5 0 3
BITMAP
FFC0
0000
FFC0
0000
FFC0
ENDCHAR
STARTCHAR uni2262
ENCODING 8802
SWIDTH 633 0
DWIDTH 12 0
BBX 11 16 0 -2
BITMAP
0060
00C0
00C0
0180
0380
0300
FFC0
0600
FFC0
0C00
FFC0
3800
3000
6000
6000
C000
ENDCHAR
STARTCHAR lessequal
ENCODING 8804
SWIDTH 633 0
DWIDTH 12 0
BBX 9 11 2 -1
BITMAP
0080
0300
0C00
3000
C000
6000
3000
0C00
0200
0000
FF80
ENDCHAR
STARTCHAR greaterequal
ENCODING 8805
SWIDTH 633 0
DWIDTH 12 0
BBX 9 11 2 -1
BITMAP
2000
1800
0600
0300
0180
0600
1800
6000
8000
0000
FF80
ENDCHAR
STARTCHAR uni226E
ENCODING 8814
SWIDTH 633 0
DWIDTH 12 0
BBX 11 16 1 -2
BITMAP
0060
00C0
00C0
0180
03C0
0380
0600
1E00
6C00
3C00
1800
3E00
3100
6000
6000
C000
ENDCHAR
STARTCHAR uni226F
ENCODING 8815
SWIDTH 633 0
DWIDTH 12 0
BBX 11 16 1 -2
BITMAP
0060
00C0
00C0
0180
1380
0F00
0700
0780
0CC0
0F00
1C00
3800
7000
6000
6000
C000
ENDCHAR
STARTCHAR uni2270
ENCODING 8816
SWIDTH 633 0
DWIDTH 12 0
BBX 11 16 1 -3
BITMAP
0060
00C0
00C0
01C0
0380
0700
1E00
6600
3C00
1C00
1E00
3900
3000
7FC0
6000
C000
ENDCHAR
STARTCHAR uni2271
ENCODING 8817
SWIDTH 633 0
DWIDTH 12 0
BBX 11 16 1 -3
BITMAP
0060
00C0
00C0
1180
0F80
0300
0780
06C0
0F00
0C00
3800
7800
3000
7FC0
6000
C000
ENDCHAR
STARTCHAR fi
ENCODING -1
SWIDTH 639 0
DWIDTH 12 0
BBX 13 17 0 -3
BITMAP
0398
0430
0C00
0C00
3FE0
1860
1860
30C0
30C0
30C0
30C0
6180
6180
6180
C000
C000
C000
ENDCHAR
STARTCHAR fl
ENCODING -1
SWIDTH 639 0
DWIDTH 12 0
BBX 12 17 0 -3
BITMAP
03F0
0430
0C30
0C30
3E60
1860
1860
30C0
30C0
30C0
30C0
6180
6180
6180
C000
C000
C000
ENDCHAR
ENDFONT
